<svg xmlns="http://www.w3.org/2000/svg"  viewBox="0 0 24 24" width="24px" height="24px"><path fill="#607D8B" d="M20,3v11c0-1.3-0.84-2.41-2-2.82V3c0-0.55-0.45-1-1-1H7C6.45,2,6,2.45,6,3v2.19	C5.58,5.33,5.2,5.56,4.88,5.88C4.3,6.46,4,7.23,4,8V3c0-1.65,1.35-3,3-3h10C18.65,0,20,1.35,20,3z"/><path fill="#607D8B" d="M20,14v7c0,1.65-1.35,3-3,3H7c-1.65,0-3-1.35-3-3v-7c0,0.77,0.3,1.54,0.88,2.12c0.32,0.32,0.7,0.56,1.12,0.7	V19h12v-2.18C19.16,16.41,20,15.3,20,14z"/><path fill="#FFF" d="M18,3v8.18C17.69,11.06,17.35,11,17,11h-4c0-0.77-0.29-1.54-0.88-2.12l-3-3C8.31,5.07,7.06,4.84,6,5.19V3	c0-0.55,0.45-1,1-1h10C17.55,2,18,2.45,18,3z"/><path fill="#FFF" d="M18,16.82V19H6v-2.18C6.32,16.94,6.65,17,7,17c0.8,0,1.55-0.31,2.12-0.88l1.08-1.08	C10.62,16.18,11.71,17,13,17h4C17.35,17,17.69,16.94,18,16.82z"/><path fill="#2196F3" d="M7,15c-0.256,0-0.512-0.098-0.707-0.293c-0.391-0.391-0.391-1.023,0-1.414L8.586,11L6.293,8.707	c-0.391-0.391-0.391-1.023,0-1.414s1.023-0.391,1.414,0l3,3c0.391,0.391,0.391,1.023,0,1.414l-3,3C7.512,14.902,7.256,15,7,15z"/><path fill="#2196F3" d="M17,15h-4c-0.553,0-1-0.448-1-1s0.447-1,1-1h4c0.553,0,1,0.448,1,1S17.553,15,17,15z"/></svg>