<svg xmlns="http://www.w3.org/2000/svg"  viewBox="0 0 64 64" width="512px" height="512px"><path fill="#0A5078" d="M6,54h52c1.105,0,2-0.895,2-2V16c0-1.105-0.895-2-2-2H6c-1.105,0-2,0.895-2,2v36C4,53.105,4.895,54,6,54z"/><path fill="#00325A" d="M47.32,17l-4.196,2.423L33.732,14h-3.464l-9.392,5.423L16.68,17l5.196-3h-4l-3.696,2.134 c-0.31,0.179-0.5,0.509-0.5,0.866v20c0,0.357,0.19,0.688,0.5,0.866l17.32,10C31.655,47.956,31.827,48,32,48 s0.345-0.044,0.5-0.134l17.32-10c0.31-0.179,0.5-0.509,0.5-0.866V17c0-0.357-0.19-0.688-0.5-0.866L46.125,14h-4L47.32,17z M15.68,18.732l4.196,2.423v11.69l-4.196,2.423V18.732z M31,45.268L16.68,37l4.196-2.423L31,40.423V45.268z M33,45.268v-4.845 l10.124-5.845L47.32,37L33,45.268z M48.32,35.268l-4.196-2.423v-11.69l4.196-2.423V35.268z"/><path fill="#00A0C8" d="M9,50h46c0.552,0,1-0.448,1-1V19c0-0.552-0.448-1-1-1H9c-0.552,0-1,0.448-1,1v30C8,49.552,8.448,50,9,50z"/><path fill="#0082AA" d="M45.588,18l-2.464,1.423L40.66,18H23.34l-2.464,1.423L18.412,18H13.68v19c0,0.357,0.19,0.688,0.5,0.866 l17.32,10C31.655,47.956,31.827,48,32,48s0.345-0.044,0.5-0.134l17.32-10c0.31-0.179,0.5-0.509,0.5-0.866V18H45.588z M15.68,18.732l4.196,2.423v11.69l-4.196,2.423V18.732z M31,45.268L16.68,37l4.196-2.423L31,40.423V45.268z M33,45.268v-4.845 l10.124-5.845L47.32,37L33,45.268z M48.32,35.268l-4.196-2.423v-11.69l4.196-2.423V35.268z"/><rect width="8" height="4" x="28" y="54" fill="#0A5078" transform="rotate(-180 32 56)"/><path fill="#0A5078" d="M20,60h24v0c0-1.105-0.895-2-2-2H22C20.895,58,20,58.895,20,60L20,60z"/><rect width="8" height="1" x="28" y="54" fill="#00325A" transform="rotate(-180 32 54.5)"/><path fill="#C80A50" d="M32,47c-0.173,0-0.345-0.044-0.5-0.134l-17.32-10c-0.31-0.179-0.5-0.509-0.5-0.866V16 c0-0.357,0.19-0.688,0.5-0.866l17.32-10c0.31-0.179,0.69-0.179,1,0l17.32,10c0.31,0.179,0.5,0.509,0.5,0.866v20 c0,0.357-0.19,0.688-0.5,0.866l-17.32,10C32.345,46.956,32.173,47,32,47z M15.68,35.423L32,44.845l16.32-9.422V16.577L32,7.155 l-16.32,9.422V35.423z"/><path fill="#C80A50" d="M48.82,36.866L32,27.155l-16.82,9.711l-1-1.732l17.32-10c0.31-0.179,0.69-0.179,1,0l17.32,10 L48.82,36.866z"/><rect width="2" height="20" x="31" y="6" fill="#C80A50"/><path fill="#F0F0F0" d="M20.145,19.153c-0.168,0.29-0.259,0.623-0.265,0.969v11.756c0.012,0.697,0.382,1.337,0.984,1.69 l10.137,5.855c0.309,0.178,0.654,0.268,0.999,0.268V26L20.145,19.153z"/><path fill="#FAB400" d="M43.855,19.153c-0.17-0.294-0.416-0.543-0.719-0.721l-10.138-5.855c-0.618-0.356-1.379-0.356-1.997,0 l-10.138,5.855c-0.303,0.178-0.548,0.427-0.719,0.721L32,26L43.855,19.153z"/><path fill="#0A5078" d="M44.12,20.122c-0.006-0.346-0.097-0.679-0.265-0.969L32,26v13.691c0.345,0,0.69-0.089,0.999-0.268 l10.137-5.855c0.601-0.353,0.972-0.994,0.984-1.69V20.122z"/><g><path fill="#C80A50" d="M32,27c-0.173,0-0.345-0.044-0.5-0.134l-17.32-10l1-1.732L32,24.845l16.82-9.711l1,1.732l-17.32,10 C32.345,26.956,32.173,27,32,27z"/></g><g><rect width="2" height="20" x="31" y="26" fill="#C80A50"/></g></svg>