<svg width="2419" height="534" viewBox="0 0 2419 534" fill="none" xmlns="http://www.w3.org/2000/svg">
<path d="M169.5 43.61C163.293 43.61 158.067 41.65 153.82 37.73C149.9 33.4833 147.94 28.2566 147.94 22.05C147.94 8.00332 155.127 0.979993 169.5 0.979993C175.38 0.979993 180.28 3.10332 184.2 7.34997C188.447 11.27 190.57 16.17 190.57 22.05C190.57 36.4233 183.547 43.61 169.5 43.61ZM218.5 92.61C212.293 92.61 207.067 90.65 202.82 86.73C198.9 82.4833 196.94 77.2567 196.94 71.05C196.94 57.0033 204.127 49.98 218.5 49.98C224.38 49.98 229.28 52.1033 233.2 56.35C237.447 60.27 239.57 65.17 239.57 71.05C239.57 85.4233 232.547 92.61 218.5 92.61ZM120.5 43.61C114.293 43.61 109.067 41.65 104.82 37.73C100.9 33.4833 98.94 28.2566 98.94 22.05C98.94 8.00332 106.127 0.979993 120.5 0.979993C126.38 0.979993 131.28 3.10332 135.2 7.34997C139.447 11.27 141.57 16.17 141.57 22.05C141.57 36.4233 134.547 43.61 120.5 43.61ZM71.5 43.61C65.2933 43.61 60.0667 41.65 55.82 37.73C51.9 33.4833 49.94 28.2566 49.94 22.05C49.94 8.00332 57.1267 0.979993 71.5 0.979993C77.38 0.979993 82.28 3.10332 86.2 7.34997C90.4467 11.27 92.57 16.17 92.57 22.05C92.57 36.4233 85.5467 43.61 71.5 43.61ZM169.5 190.61C163.293 190.61 158.067 188.65 153.82 184.73C149.9 180.483 147.94 175.257 147.94 169.05C147.94 155.003 155.127 147.98 169.5 147.98C175.38 147.98 180.28 150.103 184.2 154.35C188.447 158.27 190.57 163.17 190.57 169.05C190.57 183.423 183.547 190.61 169.5 190.61ZM218.5 239.61C212.293 239.61 207.067 237.65 202.82 233.73C198.9 229.483 196.94 224.257 196.94 218.05C196.94 204.003 204.127 196.98 218.5 196.98C224.38 196.98 229.28 199.103 233.2 203.35C237.447 207.27 239.57 212.17 239.57 218.05C239.57 232.423 232.547 239.61 218.5 239.61ZM22.5 92.61C16.2933 92.61 11.0667 90.65 6.82 86.73C2.9 82.4833 0.94 77.2567 0.94 71.05C0.94 57.0033 8.12667 49.98 22.5 49.98C28.38 49.98 33.28 52.1033 37.2 56.35C41.4467 60.27 43.57 65.17 43.57 71.05C43.57 85.4233 36.5467 92.61 22.5 92.61ZM120.5 190.61C114.293 190.61 109.067 188.65 104.82 184.73C100.9 180.483 98.94 175.257 98.94 169.05C98.94 155.003 106.127 147.98 120.5 147.98C126.38 147.98 131.28 150.103 135.2 154.35C139.447 158.27 141.57 163.17 141.57 169.05C141.57 183.423 134.547 190.61 120.5 190.61ZM218.5 288.61C212.293 288.61 207.067 286.65 202.82 282.73C198.9 278.483 196.94 273.257 196.94 267.05C196.94 253.003 204.127 245.98 218.5 245.98C224.38 245.98 229.28 248.103 233.2 252.35C237.447 256.27 239.57 261.17 239.57 267.05C239.57 281.423 232.547 288.61 218.5 288.61ZM22.5 141.61C16.2933 141.61 11.0667 139.65 6.82 135.73C2.9 131.483 0.94 126.257 0.94 120.05C0.94 106.003 8.12667 98.98 22.5 98.98C28.38 98.98 33.28 101.103 37.2 105.35C41.4467 109.27 43.57 114.17 43.57 120.05C43.57 134.423 36.5467 141.61 22.5 141.61ZM71.5 190.61C65.2933 190.61 60.0667 188.65 55.82 184.73C51.9 180.483 49.94 175.257 49.94 169.05C49.94 155.003 57.1267 147.98 71.5 147.98C77.38 147.98 82.28 150.103 86.2 154.35C90.4467 158.27 92.57 163.17 92.57 169.05C92.57 183.423 85.5467 190.61 71.5 190.61ZM169.5 337.61C163.293 337.61 158.067 335.65 153.82 331.73C149.9 327.483 147.94 322.257 147.94 316.05C147.94 302.003 155.127 294.98 169.5 294.98C175.38 294.98 180.28 297.103 184.2 301.35C188.447 305.27 190.57 310.17 190.57 316.05C190.57 330.423 183.547 337.61 169.5 337.61ZM120.5 337.61C114.293 337.61 109.067 335.65 104.82 331.73C100.9 327.483 98.94 322.257 98.94 316.05C98.94 302.003 106.127 294.98 120.5 294.98C126.38 294.98 131.28 297.103 135.2 301.35C139.447 305.27 141.57 310.17 141.57 316.05C141.57 330.423 134.547 337.61 120.5 337.61ZM22.5 337.61C16.2933 337.61 11.0667 335.65 6.82 331.73C2.9 327.483 0.94 322.257 0.94 316.05C0.94 302.003 8.12667 294.98 22.5 294.98C28.38 294.98 33.28 297.103 37.2 301.35C41.4467 305.27 43.57 310.17 43.57 316.05C43.57 330.423 36.5467 337.61 22.5 337.61ZM71.5 337.61C65.2933 337.61 60.0667 335.65 55.82 331.73C51.9 327.483 49.94 322.257 49.94 316.05C49.94 302.003 57.1267 294.98 71.5 294.98C77.38 294.98 82.28 297.103 86.2 301.35C90.4467 305.27 92.57 310.17 92.57 316.05C92.57 330.423 85.5467 337.61 71.5 337.61ZM169.5 92.61C163.293 92.61 158.067 90.65 153.82 86.73C149.9 82.4833 147.94 77.2567 147.94 71.05C147.94 57.0033 155.127 49.98 169.5 49.98C175.38 49.98 180.28 52.1033 184.2 56.35C188.447 60.27 190.57 65.17 190.57 71.05C190.57 85.4233 183.547 92.61 169.5 92.61ZM120.5 92.61C114.293 92.61 109.067 90.65 104.82 86.73C100.9 82.4833 98.94 77.2567 98.94 71.05C98.94 57.0033 106.127 49.98 120.5 49.98C126.38 49.98 131.28 52.1033 135.2 56.35C139.447 60.27 141.57 65.17 141.57 71.05C141.57 85.4233 134.547 92.61 120.5 92.61ZM71.5 92.61C65.2933 92.61 60.0667 90.65 55.82 86.73C51.9 82.4833 49.94 77.2567 49.94 71.05C49.94 57.0033 57.1267 49.98 71.5 49.98C77.38 49.98 82.28 52.1033 86.2 56.35C90.4467 60.27 92.57 65.17 92.57 71.05C92.57 85.4233 85.5467 92.61 71.5 92.61ZM169.5 239.61C163.293 239.61 158.067 237.65 153.82 233.73C149.9 229.483 147.94 224.257 147.94 218.05C147.94 204.003 155.127 196.98 169.5 196.98C175.38 196.98 180.28 199.103 184.2 203.35C188.447 207.27 190.57 212.17 190.57 218.05C190.57 232.423 183.547 239.61 169.5 239.61ZM120.5 239.61C114.293 239.61 109.067 237.65 104.82 233.73C100.9 229.483 98.94 224.257 98.94 218.05C98.94 204.003 106.127 196.98 120.5 196.98C126.38 196.98 131.28 199.103 135.2 203.35C139.447 207.27 141.57 212.17 141.57 218.05C141.57 232.423 134.547 239.61 120.5 239.61ZM71.5 239.61C65.2933 239.61 60.0667 237.65 55.82 233.73C51.9 229.483 49.94 224.257 49.94 218.05C49.94 204.003 57.1267 196.98 71.5 196.98C77.38 196.98 82.28 199.103 86.2 203.35C90.4467 207.27 92.57 212.17 92.57 218.05C92.57 232.423 85.5467 239.61 71.5 239.61ZM169.5 386.61C155.127 386.61 147.94 379.587 147.94 365.54C147.94 359.333 149.9 354.107 153.82 349.86C158.067 345.94 163.293 343.98 169.5 343.98C183.547 343.98 190.57 351.167 190.57 365.54C190.57 371.42 188.447 376.32 184.2 380.24C180.28 384.487 175.38 386.61 169.5 386.61ZM120.5 386.61C106.127 386.61 98.94 379.587 98.94 365.54C98.94 359.333 100.9 354.107 104.82 349.86C109.067 345.94 114.293 343.98 120.5 343.98C134.547 343.98 141.57 351.167 141.57 365.54C141.57 371.42 139.447 376.32 135.2 380.24C131.28 384.487 126.38 386.61 120.5 386.61ZM71.5 386.61C57.1267 386.61 49.94 379.587 49.94 365.54C49.94 359.333 51.9 354.107 55.82 349.86C60.0667 345.94 65.2933 343.98 71.5 343.98C85.5467 343.98 92.57 351.167 92.57 365.54C92.57 371.42 90.4467 376.32 86.2 380.24C82.28 384.487 77.38 386.61 71.5 386.61ZM218.5 43.61C212.293 43.61 207.067 41.65 202.82 37.73C198.9 33.4833 196.94 28.2566 196.94 22.05C196.94 8.00332 204.127 0.979993 218.5 0.979993C224.38 0.979993 229.28 3.10332 233.2 7.34997C237.447 11.27 239.57 16.17 239.57 22.05C239.57 36.4233 232.547 43.61 218.5 43.61ZM267.5 239.61C261.293 239.61 256.067 237.65 251.82 233.73C247.9 229.483 245.94 224.257 245.94 218.05C245.94 204.003 253.127 196.98 267.5 196.98C273.38 196.98 278.28 199.103 282.2 203.35C286.447 207.27 288.57 212.17 288.57 218.05C288.57 232.423 281.547 239.61 267.5 239.61ZM267.5 288.61C261.293 288.61 256.067 286.65 251.82 282.73C247.9 278.483 245.94 273.257 245.94 267.05C245.94 253.003 253.127 245.98 267.5 245.98C273.38 245.98 278.28 248.103 282.2 252.35C286.447 256.27 288.57 261.17 288.57 267.05C288.57 281.423 281.547 288.61 267.5 288.61ZM267.5 337.61C261.293 337.61 256.067 335.65 251.82 331.73C247.9 327.483 245.94 322.257 245.94 316.05C245.94 302.003 253.127 294.98 267.5 294.98C273.38 294.98 278.28 297.103 282.2 301.35C286.447 305.27 288.57 310.17 288.57 316.05C288.57 330.423 281.547 337.61 267.5 337.61ZM218.5 337.61C212.293 337.61 207.067 335.65 202.82 331.73C198.9 327.483 196.94 322.257 196.94 316.05C196.94 302.003 204.127 294.98 218.5 294.98C224.38 294.98 229.28 297.103 233.2 301.35C237.447 305.27 239.57 310.17 239.57 316.05C239.57 330.423 232.547 337.61 218.5 337.61ZM218.5 386.61C204.127 386.61 196.94 379.587 196.94 365.54C196.94 359.333 198.9 354.107 202.82 349.86C207.067 345.94 212.293 343.98 218.5 343.98C232.547 343.98 239.57 351.167 239.57 365.54C239.57 371.42 237.447 376.32 233.2 380.24C229.28 384.487 224.38 386.61 218.5 386.61ZM267.5 43.61C261.293 43.61 256.067 41.65 251.82 37.73C247.9 33.4833 245.94 28.2566 245.94 22.05C245.94 8.00332 253.127 0.979993 267.5 0.979993C273.38 0.979993 278.28 3.10332 282.2 7.34997C286.447 11.27 288.57 16.17 288.57 22.05C288.57 36.4233 281.547 43.61 267.5 43.61ZM267.5 92.61C261.293 92.61 256.067 90.65 251.82 86.73C247.9 82.4833 245.94 77.2567 245.94 71.05C245.94 57.0033 253.127 49.98 267.5 49.98C273.38 49.98 278.28 52.1033 282.2 56.35C286.447 60.27 288.57 65.17 288.57 71.05C288.57 85.4233 281.547 92.61 267.5 92.61ZM22.5 386.61C8.12667 386.61 0.94 379.587 0.94 365.54C0.94 359.333 2.9 354.107 6.82 349.86C11.0667 345.94 16.2933 343.98 22.5 343.98C36.5467 343.98 43.57 351.167 43.57 365.54C43.57 371.42 41.4467 376.32 37.2 380.24C33.28 384.487 28.38 386.61 22.5 386.61ZM22.5 190.61C16.2933 190.61 11.0667 188.65 6.82 184.73C2.9 180.483 0.94 175.257 0.94 169.05C0.94 155.003 8.12667 147.98 22.5 147.98C28.38 147.98 33.28 150.103 37.2 154.35C41.4467 158.27 43.57 163.17 43.57 169.05C43.57 183.423 36.5467 190.61 22.5 190.61ZM218.5 190.61C212.293 190.61 207.067 188.65 202.82 184.73C198.9 180.483 196.94 175.257 196.94 169.05C196.94 155.003 204.127 147.98 218.5 147.98C224.38 147.98 229.28 150.103 233.2 154.35C237.447 158.27 239.57 163.17 239.57 169.05C239.57 183.423 232.547 190.61 218.5 190.61ZM71.5 141.61C65.2933 141.61 60.0667 139.65 55.82 135.73C51.9 131.483 49.94 126.257 49.94 120.05C49.94 106.003 57.1267 98.98 71.5 98.98C77.38 98.98 82.28 101.103 86.2 105.35C90.4467 109.27 92.57 114.17 92.57 120.05C92.57 134.423 85.5467 141.61 71.5 141.61ZM440.903 190.61C426.856 190.61 419.833 183.423 419.833 169.05C419.833 163.17 421.793 158.27 425.713 154.35C429.959 150.103 435.023 147.98 440.903 147.98C455.276 147.98 462.463 155.003 462.463 169.05C462.463 175.257 460.339 180.483 456.093 184.73C452.173 188.65 447.109 190.61 440.903 190.61ZM391.903 337.61C377.856 337.61 370.833 330.423 370.833 316.05C370.833 310.17 372.793 305.27 376.713 301.35C380.959 297.103 386.023 294.98 391.903 294.98C406.276 294.98 413.463 302.003 413.463 316.05C413.463 322.257 411.339 327.483 407.093 331.73C403.173 335.65 398.109 337.61 391.903 337.61ZM489.903 190.61C475.856 190.61 468.833 183.423 468.833 169.05C468.833 163.17 470.793 158.27 474.713 154.35C478.959 150.103 484.023 147.98 489.903 147.98C504.276 147.98 511.463 155.003 511.463 169.05C511.463 175.257 509.339 180.483 505.093 184.73C501.173 188.65 496.109 190.61 489.903 190.61ZM440.903 386.61C426.856 386.61 419.833 379.423 419.833 365.05C419.833 359.17 421.793 354.107 425.713 349.86C429.959 345.94 435.023 343.98 440.903 343.98C455.276 343.98 462.463 351.003 462.463 365.05C462.463 371.257 460.339 376.32 456.093 380.24C452.173 384.487 447.109 386.61 440.903 386.61ZM391.903 288.61C377.856 288.61 370.833 281.423 370.833 267.05C370.833 261.17 372.793 256.27 376.713 252.35C380.959 248.103 386.023 245.98 391.903 245.98C406.276 245.98 413.463 253.003 413.463 267.05C413.463 273.257 411.339 278.483 407.093 282.73C403.173 286.65 398.109 288.61 391.903 288.61ZM391.903 239.61C377.856 239.61 370.833 232.423 370.833 218.05C370.833 212.17 372.793 207.27 376.713 203.35C380.959 199.103 386.023 196.98 391.903 196.98C406.276 196.98 413.463 204.003 413.463 218.05C413.463 224.257 411.339 229.483 407.093 233.73C403.173 237.65 398.109 239.61 391.903 239.61ZM538.903 190.61C524.856 190.61 517.833 183.423 517.833 169.05C517.833 163.17 519.793 158.27 523.713 154.35C527.959 150.103 533.023 147.98 538.903 147.98C553.276 147.98 560.463 155.003 560.463 169.05C560.463 175.257 558.339 180.483 554.093 184.73C550.173 188.65 545.109 190.61 538.903 190.61ZM587.903 337.61C573.856 337.61 566.833 330.423 566.833 316.05C566.833 310.17 568.793 305.27 572.713 301.35C576.959 297.103 582.023 294.98 587.903 294.98C602.276 294.98 609.463 302.003 609.463 316.05C609.463 322.257 607.339 327.483 603.093 331.73C599.173 335.65 594.109 337.61 587.903 337.61ZM538.903 386.61C524.856 386.61 517.833 379.423 517.833 365.05C517.833 359.17 519.793 354.107 523.713 349.86C527.959 345.94 533.023 343.98 538.903 343.98C553.276 343.98 560.463 351.003 560.463 365.05C560.463 371.257 558.339 376.32 554.093 380.24C550.173 384.487 545.109 386.61 538.903 386.61ZM587.903 288.61C573.856 288.61 566.833 281.423 566.833 267.05C566.833 261.17 568.793 256.27 572.713 252.35C576.959 248.103 582.023 245.98 587.903 245.98C602.276 245.98 609.463 253.003 609.463 267.05C609.463 273.257 607.339 278.483 603.093 282.73C599.173 286.65 594.109 288.61 587.903 288.61ZM587.903 239.61C573.856 239.61 566.833 232.423 566.833 218.05C566.833 212.17 568.793 207.27 572.713 203.35C576.959 199.103 582.023 196.98 587.903 196.98C602.276 196.98 609.463 204.003 609.463 218.05C609.463 224.257 607.339 229.483 603.093 233.73C599.173 237.65 594.109 239.61 587.903 239.61ZM489.903 386.61C475.856 386.61 468.833 379.423 468.833 365.05C468.833 359.17 470.793 354.107 474.713 349.86C478.959 345.94 484.023 343.98 489.903 343.98C504.276 343.98 511.463 351.003 511.463 365.05C511.463 371.257 509.339 376.32 505.093 380.24C501.173 384.487 496.109 386.61 489.903 386.61ZM391.903 484.61C377.856 484.61 370.833 477.423 370.833 463.05C370.833 457.17 372.793 452.107 376.713 447.86C380.959 443.94 386.023 441.98 391.903 441.98C406.276 441.98 413.463 449.003 413.463 463.05C413.463 469.257 411.339 474.32 407.093 478.24C403.173 482.487 398.109 484.61 391.903 484.61ZM391.903 435.61C377.856 435.61 370.833 428.423 370.833 414.05C370.833 408.17 372.793 403.107 376.713 398.86C380.959 394.94 386.023 392.98 391.903 392.98C406.276 392.98 413.463 400.003 413.463 414.05C413.463 420.257 411.339 425.32 407.093 429.24C403.173 433.487 398.109 435.61 391.903 435.61ZM391.903 386.61C377.856 386.61 370.833 379.423 370.833 365.05C370.833 359.17 372.793 354.107 376.713 349.86C380.959 345.94 386.023 343.98 391.903 343.98C406.276 343.98 413.463 351.003 413.463 365.05C413.463 371.257 411.339 376.32 407.093 380.24C403.173 384.487 398.109 386.61 391.903 386.61ZM391.903 533.61C377.856 533.61 370.833 526.423 370.833 512.05C370.833 506.17 372.793 501.107 376.713 496.86C380.959 492.94 386.023 490.98 391.903 490.98C406.276 490.98 413.463 498.003 413.463 512.05C413.463 518.257 411.339 523.32 407.093 527.24C403.173 531.487 398.109 533.61 391.903 533.61ZM714.422 337.61C700.375 337.61 693.352 330.423 693.352 316.05C693.352 310.17 695.312 305.27 699.232 301.35C703.479 297.103 708.542 294.98 714.422 294.98C728.795 294.98 735.982 302.003 735.982 316.05C735.982 322.257 733.859 327.483 729.612 331.73C725.692 335.65 720.629 337.61 714.422 337.61ZM714.422 386.61C700.375 386.61 693.352 379.423 693.352 365.05C693.352 359.17 695.312 354.107 699.232 349.86C703.479 345.94 708.542 343.98 714.422 343.98C728.795 343.98 735.982 351.003 735.982 365.05C735.982 371.257 733.859 376.32 729.612 380.24C725.692 384.487 720.629 386.61 714.422 386.61ZM714.422 288.61C700.375 288.61 693.352 281.423 693.352 267.05C693.352 261.17 695.312 256.27 699.232 252.35C703.479 248.103 708.542 245.98 714.422 245.98C728.795 245.98 735.982 253.003 735.982 267.05C735.982 273.257 733.859 278.483 729.612 282.73C725.692 286.65 720.629 288.61 714.422 288.61ZM714.422 239.61C700.375 239.61 693.352 232.423 693.352 218.05C693.352 212.17 695.312 207.27 699.232 203.35C703.479 199.103 708.542 196.98 714.422 196.98C728.795 196.98 735.982 204.003 735.982 218.05C735.982 224.257 733.859 229.483 729.612 233.73C725.692 237.65 720.629 239.61 714.422 239.61ZM714.422 190.61C700.375 190.61 693.352 183.423 693.352 169.05C693.352 163.17 695.312 158.27 699.232 154.35C703.479 150.103 708.542 147.98 714.422 147.98C728.795 147.98 735.982 155.003 735.982 169.05C735.982 175.257 733.859 180.483 729.612 184.73C725.692 188.65 720.629 190.61 714.422 190.61ZM714.422 141.61C700.375 141.61 693.352 134.423 693.352 120.05C693.352 114.17 695.312 109.27 699.232 105.35C703.479 101.103 708.542 98.98 714.422 98.98C728.795 98.98 735.982 106.003 735.982 120.05C735.982 126.257 733.859 131.483 729.612 135.73C725.692 139.65 720.629 141.61 714.422 141.61ZM714.422 92.61C700.375 92.61 693.352 85.4233 693.352 71.05C693.352 65.17 695.312 60.27 699.232 56.35C703.479 52.1033 708.542 49.98 714.422 49.98C728.795 49.98 735.982 57.0033 735.982 71.05C735.982 77.2567 733.859 82.4833 729.612 86.73C725.692 90.65 720.629 92.61 714.422 92.61ZM714.422 43.61C700.375 43.61 693.352 36.4233 693.352 22.05C693.352 16.17 695.312 11.27 699.232 7.34997C703.479 3.10332 708.542 0.979993 714.422 0.979993C728.795 0.979993 735.982 8.00332 735.982 22.05C735.982 28.2566 733.859 33.4833 729.612 37.73C725.692 41.65 720.629 43.61 714.422 43.61ZM844.578 337.61C830.532 337.61 823.508 330.423 823.508 316.05C823.508 310.17 825.468 305.27 829.388 301.35C833.635 297.103 838.698 294.98 844.578 294.98C858.952 294.98 866.138 302.003 866.138 316.05C866.138 322.257 864.015 327.483 859.768 331.73C855.848 335.65 850.785 337.61 844.578 337.61ZM844.578 386.61C830.532 386.61 823.508 379.423 823.508 365.05C823.508 359.17 825.468 354.107 829.388 349.86C833.635 345.94 838.698 343.98 844.578 343.98C858.952 343.98 866.138 351.003 866.138 365.05C866.138 371.257 864.015 376.32 859.768 380.24C855.848 384.487 850.785 386.61 844.578 386.61ZM844.578 288.61C830.532 288.61 823.508 281.423 823.508 267.05C823.508 261.17 825.468 256.27 829.388 252.35C833.635 248.103 838.698 245.98 844.578 245.98C858.952 245.98 866.138 253.003 866.138 267.05C866.138 273.257 864.015 278.483 859.768 282.73C855.848 286.65 850.785 288.61 844.578 288.61ZM844.578 239.61C830.532 239.61 823.508 232.423 823.508 218.05C823.508 212.17 825.468 207.27 829.388 203.35C833.635 199.103 838.698 196.98 844.578 196.98C858.952 196.98 866.138 204.003 866.138 218.05C866.138 224.257 864.015 229.483 859.768 233.73C855.848 237.65 850.785 239.61 844.578 239.61ZM844.578 190.61C830.532 190.61 823.508 183.423 823.508 169.05C823.508 163.17 825.468 158.27 829.388 154.35C833.635 150.103 838.698 147.98 844.578 147.98C858.952 147.98 866.138 155.003 866.138 169.05C866.138 175.257 864.015 180.483 859.768 184.73C855.848 188.65 850.785 190.61 844.578 190.61ZM844.578 92.61C830.532 92.61 823.508 85.4233 823.508 71.05C823.508 65.17 825.468 60.27 829.388 56.35C833.635 52.1033 838.698 49.98 844.578 49.98C858.952 49.98 866.138 57.0033 866.138 71.05C866.138 77.2567 864.015 82.4833 859.768 86.73C855.848 90.65 850.785 92.61 844.578 92.61ZM1439.56 190.61C1425.52 190.61 1418.49 183.423 1418.49 169.05C1418.49 163.17 1420.45 158.27 1424.37 154.35C1428.62 150.103 1433.68 147.98 1439.56 147.98C1453.94 147.98 1461.12 155.003 1461.12 169.05C1461.12 175.257 1459 180.483 1454.75 184.73C1450.83 188.65 1445.77 190.61 1439.56 190.61ZM1390.56 337.61C1376.52 337.61 1369.49 330.423 1369.49 316.05C1369.49 310.17 1371.45 305.27 1375.37 301.35C1379.62 297.103 1384.68 294.98 1390.56 294.98C1404.94 294.98 1412.12 302.003 1412.12 316.05C1412.12 322.257 1410 327.483 1405.75 331.73C1401.83 335.65 1396.77 337.61 1390.56 337.61ZM1488.56 190.61C1474.52 190.61 1467.49 183.423 1467.49 169.05C1467.49 163.17 1469.45 158.27 1473.37 154.35C1477.62 150.103 1482.68 147.98 1488.56 147.98C1502.94 147.98 1510.12 155.003 1510.12 169.05C1510.12 175.257 1508 180.483 1503.75 184.73C1499.83 188.65 1494.77 190.61 1488.56 190.61ZM1390.56 386.61C1376.52 386.61 1369.49 379.423 1369.49 365.05C1369.49 359.17 1371.45 354.107 1375.37 349.86C1379.62 345.94 1384.68 343.98 1390.56 343.98C1404.94 343.98 1412.12 351.003 1412.12 365.05C1412.12 371.257 1410 376.32 1405.75 380.24C1401.83 384.487 1396.77 386.61 1390.56 386.61ZM1390.56 288.61C1376.52 288.61 1369.49 281.423 1369.49 267.05C1369.49 261.17 1371.45 256.27 1375.37 252.35C1379.62 248.103 1384.68 245.98 1390.56 245.98C1404.94 245.98 1412.12 253.003 1412.12 267.05C1412.12 273.257 1410 278.483 1405.75 282.73C1401.83 286.65 1396.77 288.61 1390.56 288.61ZM1390.56 239.61C1376.52 239.61 1369.49 232.423 1369.49 218.05C1369.49 212.17 1371.45 207.27 1375.37 203.35C1379.62 199.103 1384.68 196.98 1390.56 196.98C1404.94 196.98 1412.12 204.003 1412.12 218.05C1412.12 224.257 1410 229.483 1405.75 233.73C1401.83 237.65 1396.77 239.61 1390.56 239.61ZM1390.56 190.61C1376.52 190.61 1369.49 183.423 1369.49 169.05C1369.49 163.17 1371.45 158.27 1375.37 154.35C1379.62 150.103 1384.68 147.98 1390.56 147.98C1404.94 147.98 1412.12 155.003 1412.12 169.05C1412.12 175.257 1410 180.483 1405.75 184.73C1401.83 188.65 1396.77 190.61 1390.56 190.61ZM1390.56 141.61C1376.52 141.61 1369.49 134.423 1369.49 120.05C1369.49 114.17 1371.45 109.27 1375.37 105.35C1379.62 101.103 1384.68 98.98 1390.56 98.98C1404.94 98.98 1412.12 106.003 1412.12 120.05C1412.12 126.257 1410 131.483 1405.75 135.73C1401.83 139.65 1396.77 141.61 1390.56 141.61ZM1390.56 92.61C1376.52 92.61 1369.49 85.4233 1369.49 71.05C1369.49 65.17 1371.45 60.27 1375.37 56.35C1379.62 52.1033 1384.68 49.98 1390.56 49.98C1404.94 49.98 1412.12 57.0033 1412.12 71.05C1412.12 77.2567 1410 82.4833 1405.75 86.73C1401.83 90.65 1396.77 92.61 1390.56 92.61ZM1726.11 190.61C1719.9 190.61 1714.68 188.65 1710.43 184.73C1706.51 180.483 1704.55 175.257 1704.55 169.05C1704.55 155.003 1711.74 147.98 1726.11 147.98C1731.99 147.98 1736.89 150.103 1740.81 154.35C1745.06 158.27 1747.18 163.17 1747.18 169.05C1747.18 183.423 1740.16 190.61 1726.11 190.61ZM1677.11 190.61C1670.9 190.61 1665.68 188.65 1661.43 184.73C1657.51 180.483 1655.55 175.257 1655.55 169.05C1655.55 155.003 1662.74 147.98 1677.11 147.98C1682.99 147.98 1687.89 150.103 1691.81 154.35C1696.06 158.27 1698.18 163.17 1698.18 169.05C1698.18 183.423 1691.16 190.61 1677.11 190.61ZM1775.11 386.61C1768.9 386.61 1763.68 384.487 1759.43 380.24C1755.51 376.32 1753.55 371.257 1753.55 365.05C1753.55 351.003 1760.74 343.98 1775.11 343.98C1780.99 343.98 1785.89 345.94 1789.81 349.86C1794.06 354.107 1796.18 359.17 1796.18 365.05C1796.18 379.423 1789.16 386.61 1775.11 386.61ZM1726.11 386.61C1719.9 386.61 1714.68 384.487 1710.43 380.24C1706.51 376.32 1704.55 371.257 1704.55 365.05C1704.55 351.003 1711.74 343.98 1726.11 343.98C1731.99 343.98 1736.89 345.94 1740.81 349.86C1745.06 354.107 1747.18 359.17 1747.18 365.05C1747.18 379.423 1740.16 386.61 1726.11 386.61ZM1677.11 386.61C1670.9 386.61 1665.68 384.487 1661.43 380.24C1657.51 376.32 1655.55 371.257 1655.55 365.05C1655.55 351.003 1662.74 343.98 1677.11 343.98C1682.99 343.98 1687.89 345.94 1691.81 349.86C1696.06 354.107 1698.18 359.17 1698.18 365.05C1698.18 379.423 1691.16 386.61 1677.11 386.61ZM1579.11 337.61C1572.9 337.61 1567.68 335.65 1563.43 331.73C1559.51 327.483 1557.55 322.257 1557.55 316.05C1557.55 302.003 1564.74 294.98 1579.11 294.98C1584.99 294.98 1589.89 297.103 1593.81 301.35C1598.06 305.27 1600.18 310.17 1600.18 316.05C1600.18 330.423 1593.16 337.61 1579.11 337.61ZM1628.11 386.61C1621.9 386.61 1616.68 384.487 1612.43 380.24C1608.51 376.32 1606.55 371.257 1606.55 365.05C1606.55 351.003 1613.74 343.98 1628.11 343.98C1633.99 343.98 1638.89 345.94 1642.81 349.86C1647.06 354.107 1649.18 359.17 1649.18 365.05C1649.18 379.423 1642.16 386.61 1628.11 386.61ZM1628.11 190.61C1621.9 190.61 1616.68 188.65 1612.43 184.73C1608.51 180.483 1606.55 175.257 1606.55 169.05C1606.55 155.003 1613.74 147.98 1628.11 147.98C1633.99 147.98 1638.89 150.103 1642.81 154.35C1647.06 158.27 1649.18 163.17 1649.18 169.05C1649.18 183.423 1642.16 190.61 1628.11 190.61ZM1628.11 386.61C1621.9 386.61 1616.68 384.487 1612.43 380.24C1608.51 376.32 1606.55 371.257 1606.55 365.05C1606.55 351.003 1613.74 343.98 1628.11 343.98C1633.99 343.98 1638.89 345.94 1642.81 349.86C1647.06 354.107 1649.18 359.17 1649.18 365.05C1649.18 379.423 1642.16 386.61 1628.11 386.61ZM1579.11 239.61C1572.9 239.61 1567.68 237.65 1563.43 233.73C1559.51 229.483 1557.55 224.257 1557.55 218.05C1557.55 204.003 1564.74 196.98 1579.11 196.98C1584.99 196.98 1589.89 199.103 1593.81 203.35C1598.06 207.27 1600.18 212.17 1600.18 218.05C1600.18 232.423 1593.16 239.61 1579.11 239.61ZM1775.11 239.61C1768.9 239.61 1763.68 237.65 1759.43 233.73C1755.51 229.483 1753.55 224.257 1753.55 218.05C1753.55 204.003 1760.74 196.98 1775.11 196.98C1780.99 196.98 1785.89 199.103 1789.81 203.35C1794.06 207.27 1796.18 212.17 1796.18 218.05C1796.18 232.423 1789.16 239.61 1775.11 239.61ZM1579.11 288.61C1572.9 288.61 1567.68 286.65 1563.43 282.73C1559.51 278.483 1557.55 273.257 1557.55 267.05C1557.55 253.003 1564.74 245.98 1579.11 245.98C1584.99 245.98 1589.89 248.103 1593.81 252.35C1598.06 256.27 1600.18 261.17 1600.18 267.05C1600.18 281.423 1593.16 288.61 1579.11 288.61ZM1726.11 288.61C1719.9 288.61 1714.68 286.65 1710.43 282.73C1706.51 278.483 1704.55 273.257 1704.55 267.05C1704.55 253.003 1711.74 245.98 1726.11 245.98C1731.99 245.98 1736.89 248.103 1740.81 252.35C1745.06 256.27 1747.18 261.17 1747.18 267.05C1747.18 281.423 1740.16 288.61 1726.11 288.61ZM1677.11 288.61C1670.9 288.61 1665.68 286.65 1661.43 282.73C1657.51 278.483 1655.55 273.257 1655.55 267.05C1655.55 253.003 1662.74 245.98 1677.11 245.98C1682.99 245.98 1687.89 248.103 1691.81 252.35C1696.06 256.27 1698.18 261.17 1698.18 267.05C1698.18 281.423 1691.16 288.61 1677.11 288.61ZM1628.11 288.61C1621.9 288.61 1616.68 286.65 1612.43 282.73C1608.51 278.483 1606.55 273.257 1606.55 267.05C1606.55 253.003 1613.74 245.98 1628.11 245.98C1633.99 245.98 1638.89 248.103 1642.81 252.35C1647.06 256.27 1649.18 261.17 1649.18 267.05C1649.18 281.423 1642.16 288.61 1628.11 288.61ZM2043.37 190.61C2037.16 190.61 2031.93 188.65 2027.69 184.73C2023.77 180.483 2021.81 175.257 2021.81 169.05C2021.81 155.003 2028.99 147.98 2043.37 147.98C2049.25 147.98 2054.15 150.103 2058.07 154.35C2062.31 158.27 2064.44 163.17 2064.44 169.05C2064.44 183.423 2057.41 190.61 2043.37 190.61ZM1994.37 190.61C1988.16 190.61 1982.93 188.65 1978.69 184.73C1974.77 180.483 1972.81 175.257 1972.81 169.05C1972.81 155.003 1979.99 147.98 1994.37 147.98C2000.25 147.98 2005.15 150.103 2009.07 154.35C2013.31 158.27 2015.44 163.17 2015.44 169.05C2015.44 183.423 2008.41 190.61 1994.37 190.61ZM2092.37 386.61C2086.16 386.61 2080.93 384.487 2076.69 380.24C2072.77 376.32 2070.81 371.257 2070.81 365.05C2070.81 351.003 2077.99 343.98 2092.37 343.98C2098.25 343.98 2103.15 345.94 2107.07 349.86C2111.31 354.107 2113.44 359.17 2113.44 365.05C2113.44 379.423 2106.41 386.61 2092.37 386.61ZM2043.37 386.61C2037.16 386.61 2031.93 384.487 2027.69 380.24C2023.77 376.32 2021.81 371.257 2021.81 365.05C2021.81 351.003 2028.99 343.98 2043.37 343.98C2049.25 343.98 2054.15 345.94 2058.07 349.86C2062.31 354.107 2064.44 359.17 2064.44 365.05C2064.44 379.423 2057.41 386.61 2043.37 386.61ZM1994.37 386.61C1988.16 386.61 1982.93 384.487 1978.69 380.24C1974.77 376.32 1972.81 371.257 1972.81 365.05C1972.81 351.003 1979.99 343.98 1994.37 343.98C2000.25 343.98 2005.15 345.94 2009.07 349.86C2013.31 354.107 2015.44 359.17 2015.44 365.05C2015.44 379.423 2008.41 386.61 1994.37 386.61ZM1896.37 337.61C1890.16 337.61 1884.93 335.65 1880.69 331.73C1876.77 327.483 1874.81 322.257 1874.81 316.05C1874.81 302.003 1881.99 294.98 1896.37 294.98C1902.25 294.98 1907.15 297.103 1911.07 301.35C1915.31 305.27 1917.44 310.17 1917.44 316.05C1917.44 330.423 1910.41 337.61 1896.37 337.61ZM1945.37 386.61C1939.16 386.61 1933.93 384.487 1929.69 380.24C1925.77 376.32 1923.81 371.257 1923.81 365.05C1923.81 351.003 1930.99 343.98 1945.37 343.98C1951.25 343.98 1956.15 345.94 1960.07 349.86C1964.31 354.107 1966.44 359.17 1966.44 365.05C1966.44 379.423 1959.41 386.61 1945.37 386.61ZM1945.37 190.61C1939.16 190.61 1933.93 188.65 1929.69 184.73C1925.77 180.483 1923.81 175.257 1923.81 169.05C1923.81 155.003 1930.99 147.98 1945.37 147.98C1951.25 147.98 1956.15 150.103 1960.07 154.35C1964.31 158.27 1966.44 163.17 1966.44 169.05C1966.44 183.423 1959.41 190.61 1945.37 190.61ZM1945.37 386.61C1939.16 386.61 1933.93 384.487 1929.69 380.24C1925.77 376.32 1923.81 371.257 1923.81 365.05C1923.81 351.003 1930.99 343.98 1945.37 343.98C1951.25 343.98 1956.15 345.94 1960.07 349.86C1964.31 354.107 1966.44 359.17 1966.44 365.05C1966.44 379.423 1959.41 386.61 1945.37 386.61ZM1896.37 239.61C1890.16 239.61 1884.93 237.65 1880.69 233.73C1876.77 229.483 1874.81 224.257 1874.81 218.05C1874.81 204.003 1881.99 196.98 1896.37 196.98C1902.25 196.98 1907.15 199.103 1911.07 203.35C1915.31 207.27 1917.44 212.17 1917.44 218.05C1917.44 232.423 1910.41 239.61 1896.37 239.61ZM2092.37 190.61C2086.16 190.61 2080.93 188.65 2076.69 184.73C2072.77 180.483 2070.81 175.257 2070.81 169.05C2070.81 155.003 2077.99 147.98 2092.37 147.98C2098.25 147.98 2103.15 150.103 2107.07 154.35C2111.31 158.27 2113.44 163.17 2113.44 169.05C2113.44 183.423 2106.41 190.61 2092.37 190.61ZM1896.37 288.61C1890.16 288.61 1884.93 286.65 1880.69 282.73C1876.77 278.483 1874.81 273.257 1874.81 267.05C1874.81 253.003 1881.99 245.98 1896.37 245.98C1902.25 245.98 1907.15 248.103 1911.07 252.35C1915.31 256.27 1917.44 261.17 1917.44 267.05C1917.44 281.423 1910.41 288.61 1896.37 288.61ZM2249.69 190.61C2235.64 190.61 2228.62 183.423 2228.62 169.05C2228.62 163.17 2230.58 158.27 2234.5 154.35C2238.75 150.103 2243.81 147.98 2249.69 147.98C2264.06 147.98 2271.25 155.003 2271.25 169.05C2271.25 175.257 2269.13 180.483 2264.88 184.73C2260.96 188.65 2255.9 190.61 2249.69 190.61ZM2200.69 337.61C2186.64 337.61 2179.62 330.423 2179.62 316.05C2179.62 310.17 2181.58 305.27 2185.5 301.35C2189.75 297.103 2194.81 294.98 2200.69 294.98C2215.06 294.98 2222.25 302.003 2222.25 316.05C2222.25 322.257 2220.13 327.483 2215.88 331.73C2211.96 335.65 2206.9 337.61 2200.69 337.61ZM2298.69 190.61C2284.64 190.61 2277.62 183.423 2277.62 169.05C2277.62 163.17 2279.58 158.27 2283.5 154.35C2287.75 150.103 2292.81 147.98 2298.69 147.98C2313.06 147.98 2320.25 155.003 2320.25 169.05C2320.25 175.257 2318.13 180.483 2313.88 184.73C2309.96 188.65 2304.9 190.61 2298.69 190.61ZM2200.69 386.61C2186.64 386.61 2179.62 379.423 2179.62 365.05C2179.62 359.17 2181.58 354.107 2185.5 349.86C2189.75 345.94 2194.81 343.98 2200.69 343.98C2215.06 343.98 2222.25 351.003 2222.25 365.05C2222.25 371.257 2220.13 376.32 2215.88 380.24C2211.96 384.487 2206.9 386.61 2200.69 386.61ZM2200.69 288.61C2186.64 288.61 2179.62 281.423 2179.62 267.05C2179.62 261.17 2181.58 256.27 2185.5 252.35C2189.75 248.103 2194.81 245.98 2200.69 245.98C2215.06 245.98 2222.25 253.003 2222.25 267.05C2222.25 273.257 2220.13 278.483 2215.88 282.73C2211.96 286.65 2206.9 288.61 2200.69 288.61ZM2200.69 239.61C2186.64 239.61 2179.62 232.423 2179.62 218.05C2179.62 212.17 2181.58 207.27 2185.5 203.35C2189.75 199.103 2194.81 196.98 2200.69 196.98C2215.06 196.98 2222.25 204.003 2222.25 218.05C2222.25 224.257 2220.13 229.483 2215.88 233.73C2211.96 237.65 2206.9 239.61 2200.69 239.61ZM2200.69 190.61C2186.64 190.61 2179.62 183.423 2179.62 169.05C2179.62 163.17 2181.58 158.27 2185.5 154.35C2189.75 150.103 2194.81 147.98 2200.69 147.98C2215.06 147.98 2222.25 155.003 2222.25 169.05C2222.25 175.257 2220.13 180.483 2215.88 184.73C2211.96 188.65 2206.9 190.61 2200.69 190.61ZM2200.69 141.61C2186.64 141.61 2179.62 134.423 2179.62 120.05C2179.62 114.17 2181.58 109.27 2185.5 105.35C2189.75 101.103 2194.81 98.98 2200.69 98.98C2215.06 98.98 2222.25 106.003 2222.25 120.05C2222.25 126.257 2220.13 131.483 2215.88 135.73C2211.96 139.65 2206.9 141.61 2200.69 141.61ZM2200.69 92.61C2186.64 92.61 2179.62 85.4233 2179.62 71.05C2179.62 65.17 2181.58 60.27 2185.5 56.35C2189.75 52.1033 2194.81 49.98 2200.69 49.98C2215.06 49.98 2222.25 57.0033 2222.25 71.05C2222.25 77.2567 2220.13 82.4833 2215.88 86.73C2211.96 90.65 2206.9 92.61 2200.69 92.61ZM2200.69 43.61C2186.64 43.61 2179.62 36.4233 2179.62 22.05C2179.62 16.17 2181.58 11.27 2185.5 7.34997C2189.75 3.10332 2194.81 0.979993 2200.69 0.979993C2215.06 0.979993 2222.25 8.00332 2222.25 22.05C2222.25 28.2566 2220.13 33.4833 2215.88 37.73C2211.96 41.65 2206.9 43.61 2200.69 43.61ZM2347.69 190.61C2333.64 190.61 2326.62 183.423 2326.62 169.05C2326.62 163.17 2328.58 158.27 2332.5 154.35C2336.75 150.103 2341.81 147.98 2347.69 147.98C2362.06 147.98 2369.25 155.003 2369.25 169.05C2369.25 175.257 2367.13 180.483 2362.88 184.73C2358.96 188.65 2353.9 190.61 2347.69 190.61ZM2396.69 337.61C2382.64 337.61 2375.62 330.423 2375.62 316.05C2375.62 310.17 2377.58 305.27 2381.5 301.35C2385.75 297.103 2390.81 294.98 2396.69 294.98C2411.06 294.98 2418.25 302.003 2418.25 316.05C2418.25 322.257 2416.13 327.483 2411.88 331.73C2407.96 335.65 2402.9 337.61 2396.69 337.61ZM2396.69 386.61C2382.64 386.61 2375.62 379.423 2375.62 365.05C2375.62 359.17 2377.58 354.107 2381.5 349.86C2385.75 345.94 2390.81 343.98 2396.69 343.98C2411.06 343.98 2418.25 351.003 2418.25 365.05C2418.25 371.257 2416.13 376.32 2411.88 380.24C2407.96 384.487 2402.9 386.61 2396.69 386.61ZM2396.69 288.61C2382.64 288.61 2375.62 281.423 2375.62 267.05C2375.62 261.17 2377.58 256.27 2381.5 252.35C2385.75 248.103 2390.81 245.98 2396.69 245.98C2411.06 245.98 2418.25 253.003 2418.25 267.05C2418.25 273.257 2416.13 278.483 2411.88 282.73C2407.96 286.65 2402.9 288.61 2396.69 288.61ZM2396.69 239.61C2382.64 239.61 2375.62 232.423 2375.62 218.05C2375.62 212.17 2377.58 207.27 2381.5 203.35C2385.75 199.103 2390.81 196.98 2396.69 196.98C2411.06 196.98 2418.25 204.003 2418.25 218.05C2418.25 224.257 2416.13 229.483 2411.88 233.73C2407.96 237.65 2402.9 239.61 2396.69 239.61Z" fill="#080000"/>
<path d="M974.268 43.61C968.061 43.61 962.834 41.65 958.588 37.73C954.668 33.4833 952.708 28.2566 952.708 22.05C952.708 8.00332 959.894 0.979993 974.268 0.979993C980.148 0.979993 985.048 3.10332 988.968 7.34997C993.214 11.27 995.338 16.17 995.338 22.05C995.338 36.4233 988.314 43.61 974.268 43.61ZM974.268 92.61C968.061 92.61 962.834 90.65 958.588 86.73C954.668 82.4833 952.708 77.2567 952.708 71.05C952.708 57.0033 959.894 49.98 974.268 49.98C980.148 49.98 985.048 52.1033 988.968 56.35C993.214 60.27 995.338 65.17 995.338 71.05C995.338 85.4233 988.314 92.61 974.268 92.61ZM1023.27 92.61C1017.06 92.61 1011.83 90.65 1007.59 86.73C1003.67 82.4833 1001.71 77.2567 1001.71 71.05C1001.71 57.0033 1008.89 49.98 1023.27 49.98C1029.15 49.98 1034.05 52.1033 1037.97 56.35C1042.21 60.27 1044.34 65.17 1044.34 71.05C1044.34 85.4233 1037.31 92.61 1023.27 92.61ZM1023.27 141.61C1017.06 141.61 1011.83 139.65 1007.59 135.73C1003.67 131.483 1001.71 126.257 1001.71 120.05C1001.71 106.003 1008.89 98.98 1023.27 98.98C1029.15 98.98 1034.05 101.103 1037.97 105.35C1042.21 109.27 1044.34 114.17 1044.34 120.05C1044.34 134.423 1037.31 141.61 1023.27 141.61ZM1072.27 141.61C1066.06 141.61 1060.83 139.65 1056.59 135.73C1052.67 131.483 1050.71 126.257 1050.71 120.05C1050.71 106.003 1057.89 98.98 1072.27 98.98C1078.15 98.98 1083.05 101.103 1086.97 105.35C1091.21 109.27 1093.34 114.17 1093.34 120.05C1093.34 134.423 1086.31 141.61 1072.27 141.61ZM1072.27 190.61C1066.06 190.61 1060.83 188.65 1056.59 184.73C1052.67 180.483 1050.71 175.257 1050.71 169.05C1050.71 155.003 1057.89 147.98 1072.27 147.98C1078.15 147.98 1083.05 150.103 1086.97 154.35C1091.21 158.27 1093.34 163.17 1093.34 169.05C1093.34 183.423 1086.31 190.61 1072.27 190.61ZM1121.27 190.61C1115.06 190.61 1109.83 188.65 1105.59 184.73C1101.67 180.483 1099.71 175.257 1099.71 169.05C1099.71 155.003 1106.89 147.98 1121.27 147.98C1127.15 147.98 1132.05 150.103 1135.97 154.35C1140.21 158.27 1142.34 163.17 1142.34 169.05C1142.34 183.423 1135.31 190.61 1121.27 190.61ZM1121.27 239.61C1115.06 239.61 1109.83 237.65 1105.59 233.73C1101.67 229.483 1099.71 224.257 1099.71 218.05C1099.71 204.003 1106.89 196.98 1121.27 196.98C1127.15 196.98 1132.05 199.103 1135.97 203.35C1140.21 207.27 1142.34 212.17 1142.34 218.05C1142.34 232.423 1135.31 239.61 1121.27 239.61ZM1170.27 141.61C1164.06 141.61 1158.83 139.65 1154.59 135.73C1150.67 131.483 1148.71 126.257 1148.71 120.05C1148.71 106.003 1155.89 98.98 1170.27 98.98C1176.15 98.98 1181.05 101.103 1184.97 105.35C1189.21 109.27 1191.34 114.17 1191.34 120.05C1191.34 134.423 1184.31 141.61 1170.27 141.61ZM1170.27 190.61C1164.06 190.61 1158.83 188.65 1154.59 184.73C1150.67 180.483 1148.71 175.257 1148.71 169.05C1148.71 155.003 1155.89 147.98 1170.27 147.98C1176.15 147.98 1181.05 150.103 1184.97 154.35C1189.21 158.27 1191.34 163.17 1191.34 169.05C1191.34 183.423 1184.31 190.61 1170.27 190.61ZM1072.27 239.61C1066.06 239.61 1060.83 237.65 1056.59 233.73C1052.67 229.483 1050.71 224.257 1050.71 218.05C1050.71 204.003 1057.89 196.98 1072.27 196.98C1078.15 196.98 1083.05 199.103 1086.97 203.35C1091.21 207.27 1093.34 212.17 1093.34 218.05C1093.34 232.423 1086.31 239.61 1072.27 239.61ZM1072.27 288.61C1066.06 288.61 1060.83 286.65 1056.59 282.73C1052.67 278.483 1050.71 273.257 1050.71 267.05C1050.71 253.003 1057.89 245.98 1072.27 245.98C1078.15 245.98 1083.05 248.103 1086.97 252.35C1091.21 256.27 1093.34 261.17 1093.34 267.05C1093.34 281.423 1086.31 288.61 1072.27 288.61ZM1023.27 288.61C1017.06 288.61 1011.83 286.65 1007.59 282.73C1003.67 278.483 1001.71 273.257 1001.71 267.05C1001.71 253.003 1008.89 245.98 1023.27 245.98C1029.15 245.98 1034.05 248.103 1037.97 252.35C1042.21 256.27 1044.34 261.17 1044.34 267.05C1044.34 281.423 1037.31 288.61 1023.27 288.61ZM1023.27 337.61C1017.06 337.61 1011.83 335.65 1007.59 331.73C1003.67 327.483 1001.71 322.257 1001.71 316.05C1001.71 302.003 1008.89 294.98 1023.27 294.98C1029.15 294.98 1034.05 297.103 1037.97 301.35C1042.21 305.27 1044.34 310.17 1044.34 316.05C1044.34 330.423 1037.31 337.61 1023.27 337.61ZM974.268 337.61C968.061 337.61 962.834 335.65 958.588 331.73C954.668 327.483 952.708 322.257 952.708 316.05C952.708 302.003 959.894 294.98 974.268 294.98C980.148 294.98 985.048 297.103 988.968 301.35C993.214 305.27 995.338 310.17 995.338 316.05C995.338 330.423 988.314 337.61 974.268 337.61ZM974.268 386.61C959.894 386.61 952.708 379.587 952.708 365.54C952.708 359.333 954.668 354.107 958.588 349.86C962.834 345.94 968.061 343.98 974.268 343.98C988.314 343.98 995.338 351.167 995.338 365.54C995.338 371.42 993.214 376.32 988.968 380.24C985.048 384.487 980.148 386.61 974.268 386.61ZM1170.27 239.61C1164.06 239.61 1158.83 237.65 1154.59 233.73C1150.67 229.483 1148.71 224.257 1148.71 218.05C1148.71 204.003 1155.89 196.98 1170.27 196.98C1176.15 196.98 1181.05 199.103 1184.97 203.35C1189.21 207.27 1191.34 212.17 1191.34 218.05C1191.34 232.423 1184.31 239.61 1170.27 239.61ZM1170.27 288.61C1164.06 288.61 1158.83 286.65 1154.59 282.73C1150.67 278.483 1148.71 273.257 1148.71 267.05C1148.71 253.003 1155.89 245.98 1170.27 245.98C1176.15 245.98 1181.05 248.103 1184.97 252.35C1189.21 256.27 1191.34 261.17 1191.34 267.05C1191.34 281.423 1184.31 288.61 1170.27 288.61ZM1219.27 288.61C1213.06 288.61 1207.83 286.65 1203.59 282.73C1199.67 278.483 1197.71 273.257 1197.71 267.05C1197.71 253.003 1204.89 245.98 1219.27 245.98C1225.15 245.98 1230.05 248.103 1233.97 252.35C1238.21 256.27 1240.34 261.17 1240.34 267.05C1240.34 281.423 1233.31 288.61 1219.27 288.61ZM1219.27 337.61C1213.06 337.61 1207.83 335.65 1203.59 331.73C1199.67 327.483 1197.71 322.257 1197.71 316.05C1197.71 302.003 1204.89 294.98 1219.27 294.98C1225.15 294.98 1230.05 297.103 1233.97 301.35C1238.21 305.27 1240.34 310.17 1240.34 316.05C1240.34 330.423 1233.31 337.61 1219.27 337.61ZM1268.27 337.61C1262.06 337.61 1256.83 335.65 1252.59 331.73C1248.67 327.483 1246.71 322.257 1246.71 316.05C1246.71 302.003 1253.89 294.98 1268.27 294.98C1274.15 294.98 1279.05 297.103 1282.97 301.35C1287.21 305.27 1289.34 310.17 1289.34 316.05C1289.34 330.423 1282.31 337.61 1268.27 337.61ZM1268.27 386.61C1253.89 386.61 1246.71 379.587 1246.71 365.54C1246.71 359.333 1248.67 354.107 1252.59 349.86C1256.83 345.94 1262.06 343.98 1268.27 343.98C1282.31 343.98 1289.34 351.167 1289.34 365.54C1289.34 371.42 1287.21 376.32 1282.97 380.24C1279.05 384.487 1274.15 386.61 1268.27 386.61ZM1268.27 43.61C1262.06 43.61 1256.83 41.65 1252.59 37.73C1248.67 33.4833 1246.71 28.2566 1246.71 22.05C1246.71 8.00332 1253.89 0.979993 1268.27 0.979993C1274.15 0.979993 1279.05 3.10332 1282.97 7.34997C1287.21 11.27 1289.34 16.17 1289.34 22.05C1289.34 36.4233 1282.31 43.61 1268.27 43.61ZM1268.27 92.61C1262.06 92.61 1256.83 90.65 1252.59 86.73C1248.67 82.4833 1246.71 77.2567 1246.71 71.05C1246.71 57.0033 1253.89 49.98 1268.27 49.98C1274.15 49.98 1279.05 52.1033 1282.97 56.35C1287.21 60.27 1289.34 65.17 1289.34 71.05C1289.34 85.4233 1282.31 92.61 1268.27 92.61ZM1219.27 92.61C1213.06 92.61 1207.83 90.65 1203.59 86.73C1199.67 82.4833 1197.71 77.2567 1197.71 71.05C1197.71 57.0033 1204.89 49.98 1219.27 49.98C1225.15 49.98 1230.05 52.1033 1233.97 56.35C1238.21 60.27 1240.34 65.17 1240.34 71.05C1240.34 85.4233 1233.31 92.61 1219.27 92.61ZM1219.27 141.61C1213.06 141.61 1207.83 139.65 1203.59 135.73C1199.67 131.483 1197.71 126.257 1197.71 120.05C1197.71 106.003 1204.89 98.98 1219.27 98.98C1225.15 98.98 1230.05 101.103 1233.97 105.35C1238.21 109.27 1240.34 114.17 1240.34 120.05C1240.34 134.423 1233.31 141.61 1219.27 141.61ZM1023.27 43.61C1017.06 43.61 1011.83 41.65 1007.59 37.73C1003.67 33.4833 1001.71 28.2566 1001.71 22.05C1001.71 8.00332 1008.89 0.979993 1023.27 0.979993C1029.15 0.979993 1034.05 3.10332 1037.97 7.34997C1042.21 11.27 1044.34 16.17 1044.34 22.05C1044.34 36.4233 1037.31 43.61 1023.27 43.61ZM1219.27 43.61C1213.06 43.61 1207.83 41.65 1203.59 37.73C1199.67 33.4833 1197.71 28.2566 1197.71 22.05C1197.71 8.00332 1204.89 0.979993 1219.27 0.979993C1225.15 0.979993 1230.05 3.10332 1233.97 7.34997C1238.21 11.27 1240.34 16.17 1240.34 22.05C1240.34 36.4233 1233.31 43.61 1219.27 43.61ZM1219.27 386.61C1204.89 386.61 1197.71 379.587 1197.71 365.54C1197.71 359.333 1199.67 354.107 1203.59 349.86C1207.83 345.94 1213.06 343.98 1219.27 343.98C1233.31 343.98 1240.34 351.167 1240.34 365.54C1240.34 371.42 1238.21 376.32 1233.97 380.24C1230.05 384.487 1225.15 386.61 1219.27 386.61ZM1023.27 386.61C1008.89 386.61 1001.71 379.587 1001.71 365.54C1001.71 359.333 1003.67 354.107 1007.59 349.86C1011.83 345.94 1017.06 343.98 1023.27 343.98C1037.31 343.98 1044.34 351.167 1044.34 365.54C1044.34 371.42 1042.21 376.32 1037.97 380.24C1034.05 384.487 1029.15 386.61 1023.27 386.61Z" fill="#FFDA41"/>
</svg>
