<svg width="2170" height="423" viewBox="0 0 2170 423" fill="none" xmlns="http://www.w3.org/2000/svg">
<path d="M252.75 -2.3365e-05V49.49H52.83V147H0.400001V52.43C0.400001 23.52 23.92 -2.3365e-05 52.83 -2.3365e-05H252.75ZM52.83 147H213.06C240.5 147 262.55 169.05 262.55 196.49V290.57C262.55 319.48 239.03 343 210.12 343H10.2V294.49H210.12V196.49H52.83V147ZM368.034 91.14H508.664C534.144 91.14 555.214 112.21 555.214 137.69V273.42C555.214 299.39 534.144 319.97 508.664 319.97H418.504C393.024 319.97 372.444 299.39 372.444 273.42H504.744V137.69H372.444V273.42H321.484V137.69C321.484 112.21 342.554 91.14 368.034 91.14ZM372.444 422.87H321.484V343H372.444V422.87ZM664.327 343H613.857V-2.3365e-05H664.327V343ZM722.959 40.18V1.95998H773.429V90.65C745.499 90.65 722.959 68.11 722.959 40.18ZM773.429 343H722.959V102.41H773.429V343ZM832.06 94.57V-2.3365e-05H884.49V147C855.58 147 832.06 123.48 832.06 94.57ZM1094.21 -2.3365e-05V94.57C1094.21 123.48 1070.69 147 1041.78 147V-2.3365e-05H1094.21ZM884.49 195.51V147H1041.78V195.51C1070.69 195.51 1094.21 219.03 1094.21 247.94V343H1041.78V196H884.49V343H832.06V247.94C832.06 219.03 855.58 195.51 884.49 195.51ZM1248.2 1.46999V90.16C1220.27 90.16 1197.24 67.62 1197.24 39.69V1.46999H1248.2ZM1248.2 147.98V296.45H1345.22V343H1244.28C1218.31 343 1197.24 321.93 1197.24 296.45V147.98H1153.14V99.47H1315.82V147.98H1248.2ZM1450.44 91.14H1586.66C1612.14 91.14 1632.72 111.72 1632.72 137.69V199.92H1632.23C1630.27 223.44 1610.67 241.57 1586.66 241.57H1454.85V195.02H1582.25V137.69H1454.85V195.02C1426.92 195.02 1403.89 172.48 1403.89 144.55V137.69H1404.38C1404.38 111.72 1424.96 91.14 1450.44 91.14ZM1403.89 292.53V292.04C1403.89 264.11 1426.92 241.57 1454.85 241.57V296.94H1623.41V343H1454.85C1419.57 343 1403.89 320.46 1403.89 292.53ZM1788.49 91.14H1886V137.69H1741.94C1741.94 111.72 1762.52 91.14 1788.49 91.14ZM1741.94 137.69L1742.43 295.96H1887.47V342.51H1742.43C1714.01 342.51 1691.47 320.46 1691.47 292.53V137.69H1741.94ZM1946.04 51.94V-2.3365e-05H1997V102.41C1969.07 102.41 1946.04 79.87 1946.04 51.94ZM1997 102.41H2120.48C2147.43 102.41 2169.48 124.46 2169.48 151.41V343H2118.52V151.41H1997V102.41ZM1997 343H1946.04V151.41H1997V343Z" fill="white"/>
</svg>
