<svg width="2286" height="491" viewBox="0 0 2286 491" fill="none" xmlns="http://www.w3.org/2000/svg">
<path d="M81.585 382C66.64 382 54.39 369.75 54.39 354.805C54.39 339.615 66.64 327.61 81.585 327.61C96.775 327.61 108.78 339.86 108.78 354.805C108.78 369.75 96.775 382 81.585 382ZM136.22 382C121.03 382 108.78 369.75 108.78 354.805C108.78 339.615 121.03 327.61 136.22 327.61C151.165 327.61 163.415 339.86 163.415 354.805C163.415 369.75 151.165 382 136.22 382ZM190.61 382C175.42 382 163.415 369.75 163.415 354.805C163.415 339.615 175.42 327.61 190.61 327.61C205.555 327.61 217.805 339.86 217.805 354.805C217.805 369.75 205.555 382 190.61 382ZM27.195 327.61C12.25 327.61 0 315.36 0 300.415C0 285.225 12.25 273.22 27.195 273.22C42.385 273.22 54.39 285.225 54.39 300.415C54.39 315.36 42.14 327.61 27.195 327.61ZM245 327.61C230.055 327.61 217.805 315.36 217.805 300.415C217.805 285.225 230.055 273.22 245 273.22C259.945 273.22 272.195 285.225 272.195 300.415C272.195 315.36 259.945 327.61 245 327.61ZM245 273.22C230.055 273.22 217.805 260.97 217.805 245.78C217.805 230.835 230.055 218.585 245 218.585C259.945 218.585 272.195 230.835 272.195 245.78C272.195 260.97 259.945 273.22 245 273.22ZM81.585 218.585C66.64 218.585 54.39 206.58 54.39 191.39C54.39 176.445 66.64 164.195 81.585 164.195C96.775 164.195 108.78 176.445 108.78 191.39C108.78 206.58 96.775 218.585 81.585 218.585ZM136.22 218.585C121.03 218.585 108.78 206.58 108.78 191.39C108.78 176.445 121.03 164.195 136.22 164.195C151.165 164.195 163.415 176.445 163.415 191.39C163.415 206.58 151.165 218.585 136.22 218.585ZM190.61 218.585C175.42 218.585 163.415 206.58 163.415 191.39C163.415 176.445 175.42 164.195 190.61 164.195C205.555 164.195 217.805 176.445 217.805 191.39C217.805 206.58 205.555 218.585 190.61 218.585ZM27.195 164.195C12.25 164.195 0 151.945 0 137C0 122.055 12.25 109.805 27.195 109.805C42.385 109.805 54.39 122.055 54.39 137C54.39 151.945 42.14 164.195 27.195 164.195ZM27.195 109.805C12.25 109.805 0 97.555 0 82.61C0 67.42 12.25 55.415 27.195 55.415C42.385 55.415 54.39 67.42 54.39 82.61C54.39 97.555 42.14 109.805 27.195 109.805ZM245 109.805C230.055 109.805 217.805 97.555 217.805 82.61C217.805 67.42 230.055 55.415 245 55.415C259.945 55.415 272.195 67.42 272.195 82.61C272.195 97.555 259.945 109.805 245 109.805ZM81.585 55.415C66.64 55.415 54.39 43.165 54.39 28.22C54.39 13.03 66.64 0.779972 81.585 0.779972C96.775 0.779972 108.78 13.03 108.78 28.22C108.78 43.165 96.775 55.415 81.585 55.415ZM136.22 55.415C121.03 55.415 108.78 43.165 108.78 28.22C108.78 13.03 121.03 0.779972 136.22 0.779972C151.165 0.779972 163.415 13.03 163.415 28.22C163.415 43.165 151.165 55.415 136.22 55.415ZM190.61 55.415C175.42 55.415 163.415 43.165 163.415 28.22C163.415 13.03 175.42 0.779972 190.61 0.779972C205.555 0.779972 217.805 13.03 217.805 28.22C217.805 43.165 205.555 55.415 190.61 55.415ZM353.543 490.78C338.598 490.78 326.348 478.775 326.348 463.585C326.348 448.64 338.598 436.39 353.543 436.39C368.733 436.39 380.738 448.64 380.738 463.585C380.738 478.775 368.488 490.78 353.543 490.78ZM353.543 436.39C338.598 436.39 326.348 424.14 326.348 409.195C326.348 394.25 338.598 382 353.543 382C368.733 382 380.738 394.25 380.738 409.195C380.738 424.385 368.488 436.39 353.543 436.39ZM353.543 382C338.598 382 326.348 369.75 326.348 354.805C326.348 339.615 338.598 327.61 353.543 327.61C368.733 327.61 380.738 339.86 380.738 354.805C380.738 369.75 368.488 382 353.543 382ZM407.933 382C392.988 382 380.738 369.75 380.738 354.805C380.738 339.615 392.988 327.61 407.933 327.61C423.123 327.61 435.128 339.86 435.128 354.805C435.128 369.75 423.123 382 407.933 382ZM462.568 382C447.378 382 435.128 369.75 435.128 354.805C435.128 339.615 447.378 327.61 462.568 327.61C477.513 327.61 489.763 339.86 489.763 354.805C489.763 369.75 477.513 382 462.568 382ZM353.543 327.61C338.598 327.61 326.348 315.36 326.348 300.415C326.348 285.225 338.598 273.22 353.543 273.22C368.733 273.22 380.738 285.225 380.738 300.415C380.738 315.36 368.488 327.61 353.543 327.61ZM516.958 327.61C501.768 327.61 489.763 315.36 489.763 300.415C489.763 285.225 501.768 273.22 516.958 273.22C531.903 273.22 544.153 285.225 544.153 300.415C544.153 315.36 531.903 327.61 516.958 327.61ZM353.543 273.22C338.598 273.22 326.348 260.97 326.348 245.78C326.348 230.835 338.598 218.585 353.543 218.585C368.733 218.585 380.738 230.835 380.738 245.78C380.738 260.97 368.488 273.22 353.543 273.22ZM516.958 273.22C501.768 273.22 489.763 260.97 489.763 245.78C489.763 230.835 501.768 218.585 516.958 218.585C531.903 218.585 544.153 230.835 544.153 245.78C544.153 260.97 531.903 273.22 516.958 273.22ZM353.543 218.585C338.598 218.585 326.348 206.58 326.348 191.39C326.348 176.445 338.598 164.195 353.543 164.195C368.733 164.195 380.738 176.445 380.738 191.39C380.738 206.58 368.488 218.585 353.543 218.585ZM516.958 218.585C501.768 218.585 489.763 206.58 489.763 191.39C489.763 176.445 501.768 164.195 516.958 164.195C531.903 164.195 544.153 176.445 544.153 191.39C544.153 206.58 531.903 218.585 516.958 218.585ZM353.543 164.195C338.598 164.195 326.348 151.945 326.348 137C326.348 122.055 338.598 109.805 353.543 109.805C368.733 109.805 380.738 122.055 380.738 137C380.738 151.945 368.488 164.195 353.543 164.195ZM407.933 164.195C392.988 164.195 380.738 151.945 380.738 137C380.738 122.055 392.988 109.805 407.933 109.805C423.123 109.805 435.128 122.055 435.128 137C435.128 151.945 423.123 164.195 407.933 164.195ZM462.568 164.195C447.378 164.195 435.128 151.945 435.128 137C435.128 122.055 447.378 109.805 462.568 109.805C477.513 109.805 489.763 122.055 489.763 137C489.763 151.945 477.513 164.195 462.568 164.195ZM625.818 382C610.873 382 598.623 369.75 598.623 354.805C598.623 339.615 610.873 327.61 625.818 327.61C641.008 327.61 653.013 339.86 653.013 354.805C653.013 369.75 640.763 382 625.818 382ZM625.818 327.61C610.873 327.61 598.623 315.36 598.623 300.415C598.623 285.225 610.873 273.22 625.818 273.22C641.008 273.22 653.013 285.225 653.013 300.415C653.013 315.36 640.763 327.61 625.818 327.61ZM625.818 273.22C610.873 273.22 598.623 260.97 598.623 245.78C598.623 230.835 610.873 218.585 625.818 218.585C641.008 218.585 653.013 230.835 653.013 245.78C653.013 260.97 640.763 273.22 625.818 273.22ZM625.818 218.585C610.873 218.585 598.623 206.58 598.623 191.39C598.623 176.445 610.873 164.195 625.818 164.195C641.008 164.195 653.013 176.445 653.013 191.39C653.013 206.58 640.763 218.585 625.818 218.585ZM625.818 164.195C610.873 164.195 598.623 151.945 598.623 137C598.623 122.055 610.873 109.805 625.818 109.805C641.008 109.805 653.013 122.055 653.013 137C653.013 151.945 640.763 164.195 625.818 164.195ZM625.818 109.805C610.873 109.805 598.623 97.555 598.623 82.61C598.623 67.42 610.873 55.415 625.818 55.415C641.008 55.415 653.013 67.42 653.013 82.61C653.013 97.555 640.763 109.805 625.818 109.805ZM625.818 55.415C610.873 55.415 598.623 43.165 598.623 28.22C598.623 13.03 610.873 0.779972 625.818 0.779972C641.008 0.779972 653.013 13.03 653.013 28.22C653.013 43.165 640.763 55.415 625.818 55.415ZM788.831 382C773.886 382 761.636 369.75 761.636 354.805C761.636 339.615 773.886 327.61 788.831 327.61C804.021 327.61 816.026 339.86 816.026 354.805C816.026 369.75 804.021 382 788.831 382ZM843.466 382C828.276 382 816.026 369.75 816.026 354.805C816.026 339.615 828.276 327.61 843.466 327.61C858.411 327.61 870.661 339.86 870.661 354.805C870.661 369.75 858.411 382 843.466 382ZM788.831 327.61C773.886 327.61 761.636 315.36 761.636 300.415C761.636 285.225 773.886 273.22 788.831 273.22C804.021 273.22 816.026 285.225 816.026 300.415C816.026 315.36 804.021 327.61 788.831 327.61ZM788.831 273.22C773.886 273.22 761.636 260.97 761.636 245.78C761.636 230.835 773.886 218.585 788.831 218.585C804.021 218.585 816.026 230.835 816.026 245.78C816.026 260.97 804.021 273.22 788.831 273.22ZM788.831 218.585C773.886 218.585 761.636 206.58 761.636 191.39C761.636 176.445 773.886 164.195 788.831 164.195C804.021 164.195 816.026 176.445 816.026 191.39C816.026 206.58 804.021 218.585 788.831 218.585ZM734.441 164.195C719.496 164.195 707.246 151.945 707.246 137C707.246 122.055 719.496 109.805 734.441 109.805C749.631 109.805 761.636 122.055 761.636 137C761.636 151.945 749.386 164.195 734.441 164.195ZM788.831 164.195C773.886 164.195 761.636 151.945 761.636 137C761.636 122.055 773.886 109.805 788.831 109.805C804.021 109.805 816.026 122.055 816.026 137C816.026 151.945 804.021 164.195 788.831 164.195ZM788.831 55.415C773.886 55.415 761.636 43.165 761.636 28.22C761.636 13.03 773.886 0.779972 788.831 0.779972C804.021 0.779972 816.026 13.03 816.026 28.22C816.026 43.165 804.021 55.415 788.831 55.415ZM952.166 382C937.221 382 924.971 369.75 924.971 354.805C924.971 339.615 937.221 327.61 952.166 327.61C967.356 327.61 979.361 339.86 979.361 354.805C979.361 369.75 967.111 382 952.166 382ZM1169.97 382C1155.03 382 1142.78 369.75 1142.78 354.805C1142.78 339.615 1155.03 327.61 1169.97 327.61C1184.92 327.61 1197.17 339.86 1197.17 354.805C1197.17 369.75 1184.92 382 1169.97 382ZM952.166 327.61C937.221 327.61 924.971 315.36 924.971 300.415C924.971 285.225 937.221 273.22 952.166 273.22C967.356 273.22 979.361 285.225 979.361 300.415C979.361 315.36 967.111 327.61 952.166 327.61ZM1169.97 327.61C1155.03 327.61 1142.78 315.36 1142.78 300.415C1142.78 285.225 1155.03 273.22 1169.97 273.22C1184.92 273.22 1197.17 285.225 1197.17 300.415C1197.17 315.36 1184.92 327.61 1169.97 327.61ZM1006.56 273.22C991.611 273.22 979.361 260.97 979.361 245.78C979.361 230.835 991.611 218.585 1006.56 218.585C1021.75 218.585 1033.75 230.835 1033.75 245.78C1033.75 260.97 1021.75 273.22 1006.56 273.22ZM1115.58 273.22C1100.39 273.22 1088.39 260.97 1088.39 245.78C1088.39 230.835 1100.39 218.585 1115.58 218.585C1130.53 218.585 1142.78 230.835 1142.78 245.78C1142.78 260.97 1130.53 273.22 1115.58 273.22ZM1061.19 218.585C1046 218.585 1033.75 206.58 1033.75 191.39C1033.75 176.445 1046 164.195 1061.19 164.195C1076.14 164.195 1088.39 176.445 1088.39 191.39C1088.39 206.58 1076.14 218.585 1061.19 218.585ZM1006.56 164.195C991.611 164.195 979.361 151.945 979.361 137C979.361 122.055 991.611 109.805 1006.56 109.805C1021.75 109.805 1033.75 122.055 1033.75 137C1033.75 151.945 1021.75 164.195 1006.56 164.195ZM1115.58 164.195C1100.39 164.195 1088.39 151.945 1088.39 137C1088.39 122.055 1100.39 109.805 1115.58 109.805C1130.53 109.805 1142.78 122.055 1142.78 137C1142.78 151.945 1130.53 164.195 1115.58 164.195ZM952.166 109.805C937.221 109.805 924.971 97.555 924.971 82.61C924.971 67.42 937.221 55.415 952.166 55.415C967.356 55.415 979.361 67.42 979.361 82.61C979.361 97.555 967.111 109.805 952.166 109.805ZM1169.97 109.805C1155.03 109.805 1142.78 97.555 1142.78 82.61C1142.78 67.42 1155.03 55.415 1169.97 55.415C1184.92 55.415 1197.17 67.42 1197.17 82.61C1197.17 97.555 1184.92 109.805 1169.97 109.805ZM952.166 55.415C937.221 55.415 924.971 43.165 924.971 28.22C924.971 13.03 937.221 0.779972 952.166 0.779972C967.356 0.779972 979.361 13.03 979.361 28.22C979.361 43.165 967.111 55.415 952.166 55.415ZM1169.97 55.415C1155.03 55.415 1142.78 43.165 1142.78 28.22C1142.78 13.03 1155.03 0.779972 1169.97 0.779972C1184.92 0.779972 1197.17 13.03 1197.17 28.22C1197.17 43.165 1184.92 55.415 1169.97 55.415ZM1387.54 382C1372.35 382 1360.1 369.75 1360.1 354.805C1360.1 339.615 1372.35 327.61 1387.54 327.61C1402.48 327.61 1414.73 339.86 1414.73 354.805C1414.73 369.75 1402.48 382 1387.54 382ZM1441.93 382C1426.74 382 1414.73 369.75 1414.73 354.805C1414.73 339.615 1426.74 327.61 1441.93 327.61C1456.87 327.61 1469.12 339.86 1469.12 354.805C1469.12 369.75 1456.87 382 1441.93 382ZM1332.9 327.61C1317.96 327.61 1305.71 315.36 1305.71 300.415C1305.71 285.225 1317.96 273.22 1332.9 273.22C1348.09 273.22 1360.1 285.225 1360.1 300.415C1360.1 315.36 1348.09 327.61 1332.9 327.61ZM1332.9 273.22C1317.96 273.22 1305.71 260.97 1305.71 245.78C1305.71 230.835 1317.96 218.585 1332.9 218.585C1348.09 218.585 1360.1 230.835 1360.1 245.78C1360.1 260.97 1348.09 273.22 1332.9 273.22ZM1332.9 218.585C1317.96 218.585 1305.71 206.58 1305.71 191.39C1305.71 176.445 1317.96 164.195 1332.9 164.195C1348.09 164.195 1360.1 176.445 1360.1 191.39C1360.1 206.58 1348.09 218.585 1332.9 218.585ZM1278.51 164.195C1263.57 164.195 1251.32 151.945 1251.32 137C1251.32 122.055 1263.57 109.805 1278.51 109.805C1293.7 109.805 1305.71 122.055 1305.71 137C1305.71 151.945 1293.46 164.195 1278.51 164.195ZM1332.9 164.195C1317.96 164.195 1305.71 151.945 1305.71 137C1305.71 122.055 1317.96 109.805 1332.9 109.805C1348.09 109.805 1360.1 122.055 1360.1 137C1360.1 151.945 1348.09 164.195 1332.9 164.195ZM1387.54 164.195C1372.35 164.195 1360.1 151.945 1360.1 137C1360.1 122.055 1372.35 109.805 1387.54 109.805C1402.48 109.805 1414.73 122.055 1414.73 137C1414.73 151.945 1402.48 164.195 1387.54 164.195ZM1441.93 164.195C1426.74 164.195 1414.73 151.945 1414.73 137C1414.73 122.055 1426.74 109.805 1441.93 109.805C1456.87 109.805 1469.12 122.055 1469.12 137C1469.12 151.945 1456.87 164.195 1441.93 164.195ZM1332.9 109.805C1317.96 109.805 1305.71 97.555 1305.71 82.61C1305.71 67.42 1317.96 55.415 1332.9 55.415C1348.09 55.415 1360.1 67.42 1360.1 82.61C1360.1 97.555 1348.09 109.805 1332.9 109.805ZM1605.18 382C1590.23 382 1577.98 369.75 1577.98 354.805C1577.98 339.615 1590.23 327.61 1605.18 327.61C1620.37 327.61 1632.37 339.86 1632.37 354.805C1632.37 369.75 1620.37 382 1605.18 382ZM1659.81 382C1644.62 382 1632.37 369.75 1632.37 354.805C1632.37 339.615 1644.62 327.61 1659.81 327.61C1674.76 327.61 1687.01 339.86 1687.01 354.805C1687.01 369.75 1674.76 382 1659.81 382ZM1714.2 382C1699.01 382 1687.01 369.75 1687.01 354.805C1687.01 339.615 1699.01 327.61 1714.2 327.61C1729.15 327.61 1741.4 339.86 1741.4 354.805C1741.4 369.75 1729.15 382 1714.2 382ZM1550.79 327.61C1535.84 327.61 1523.59 315.36 1523.59 300.415C1523.59 285.225 1535.84 273.22 1550.79 273.22C1565.98 273.22 1577.98 285.225 1577.98 300.415C1577.98 315.36 1565.73 327.61 1550.79 327.61ZM1550.79 273.22C1535.84 273.22 1523.59 260.97 1523.59 245.78C1523.59 230.835 1535.84 218.585 1550.79 218.585C1565.98 218.585 1577.98 230.835 1577.98 245.78C1577.98 260.97 1565.73 273.22 1550.79 273.22ZM1605.18 273.22C1590.23 273.22 1577.98 260.97 1577.98 245.78C1577.98 230.835 1590.23 218.585 1605.18 218.585C1620.37 218.585 1632.37 230.835 1632.37 245.78C1632.37 260.97 1620.37 273.22 1605.18 273.22ZM1659.81 273.22C1644.62 273.22 1632.37 260.97 1632.37 245.78C1632.37 230.835 1644.62 218.585 1659.81 218.585C1674.76 218.585 1687.01 230.835 1687.01 245.78C1687.01 260.97 1674.76 273.22 1659.81 273.22ZM1714.2 273.22C1699.01 273.22 1687.01 260.97 1687.01 245.78C1687.01 230.835 1699.01 218.585 1714.2 218.585C1729.15 218.585 1741.4 230.835 1741.4 245.78C1741.4 260.97 1729.15 273.22 1714.2 273.22ZM1550.79 218.585C1535.84 218.585 1523.59 206.58 1523.59 191.39C1523.59 176.445 1535.84 164.195 1550.79 164.195C1565.98 164.195 1577.98 176.445 1577.98 191.39C1577.98 206.58 1565.73 218.585 1550.79 218.585ZM1714.2 218.585C1699.01 218.585 1687.01 206.58 1687.01 191.39C1687.01 176.445 1699.01 164.195 1714.2 164.195C1729.15 164.195 1741.4 176.445 1741.4 191.39C1741.4 206.58 1729.15 218.585 1714.2 218.585ZM1605.18 164.195C1590.23 164.195 1577.98 151.945 1577.98 137C1577.98 122.055 1590.23 109.805 1605.18 109.805C1620.37 109.805 1632.37 122.055 1632.37 137C1632.37 151.945 1620.37 164.195 1605.18 164.195ZM1659.81 164.195C1644.62 164.195 1632.37 151.945 1632.37 137C1632.37 122.055 1644.62 109.805 1659.81 109.805C1674.76 109.805 1687.01 122.055 1687.01 137C1687.01 151.945 1674.76 164.195 1659.81 164.195ZM1877.45 382C1862.51 382 1850.26 369.75 1850.26 354.805C1850.26 339.615 1862.51 327.61 1877.45 327.61C1892.64 327.61 1904.65 339.86 1904.65 354.805C1904.65 369.75 1892.64 382 1877.45 382ZM1932.09 382C1916.9 382 1904.65 369.75 1904.65 354.805C1904.65 339.615 1916.9 327.61 1932.09 327.61C1947.03 327.61 1959.28 339.86 1959.28 354.805C1959.28 369.75 1947.03 382 1932.09 382ZM1986.48 382C1971.29 382 1959.28 369.75 1959.28 354.805C1959.28 339.615 1971.29 327.61 1986.48 327.61C2001.42 327.61 2013.67 339.86 2013.67 354.805C2013.67 369.75 2001.42 382 1986.48 382ZM1823.06 327.61C1808.12 327.61 1795.87 315.36 1795.87 300.415C1795.87 285.225 1808.12 273.22 1823.06 273.22C1838.25 273.22 1850.26 285.225 1850.26 300.415C1850.26 315.36 1838.01 327.61 1823.06 327.61ZM1823.06 273.22C1808.12 273.22 1795.87 260.97 1795.87 245.78C1795.87 230.835 1808.12 218.585 1823.06 218.585C1838.25 218.585 1850.26 230.835 1850.26 245.78C1850.26 260.97 1838.01 273.22 1823.06 273.22ZM1823.06 218.585C1808.12 218.585 1795.87 206.58 1795.87 191.39C1795.87 176.445 1808.12 164.195 1823.06 164.195C1838.25 164.195 1850.26 176.445 1850.26 191.39C1850.26 206.58 1838.01 218.585 1823.06 218.585ZM1877.45 164.195C1862.51 164.195 1850.26 151.945 1850.26 137C1850.26 122.055 1862.51 109.805 1877.45 109.805C1892.64 109.805 1904.65 122.055 1904.65 137C1904.65 151.945 1892.64 164.195 1877.45 164.195ZM1932.09 164.195C1916.9 164.195 1904.65 151.945 1904.65 137C1904.65 122.055 1916.9 109.805 1932.09 109.805C1947.03 109.805 1959.28 122.055 1959.28 137C1959.28 151.945 1947.03 164.195 1932.09 164.195ZM1986.48 164.195C1971.29 164.195 1959.28 151.945 1959.28 137C1959.28 122.055 1971.29 109.805 1986.48 109.805C2001.42 109.805 2013.67 122.055 2013.67 137C2013.67 151.945 2001.42 164.195 1986.48 164.195ZM2095.34 382C2080.39 382 2068.14 369.75 2068.14 354.805C2068.14 339.615 2080.39 327.61 2095.34 327.61C2110.53 327.61 2122.53 339.86 2122.53 354.805C2122.53 369.75 2110.28 382 2095.34 382ZM2258.75 382C2243.56 382 2231.56 369.75 2231.56 354.805C2231.56 339.615 2243.56 327.61 2258.75 327.61C2273.7 327.61 2285.95 339.86 2285.95 354.805C2285.95 369.75 2273.7 382 2258.75 382ZM2095.34 327.61C2080.39 327.61 2068.14 315.36 2068.14 300.415C2068.14 285.225 2080.39 273.22 2095.34 273.22C2110.53 273.22 2122.53 285.225 2122.53 300.415C2122.53 315.36 2110.28 327.61 2095.34 327.61ZM2258.75 327.61C2243.56 327.61 2231.56 315.36 2231.56 300.415C2231.56 285.225 2243.56 273.22 2258.75 273.22C2273.7 273.22 2285.95 285.225 2285.95 300.415C2285.95 315.36 2273.7 327.61 2258.75 327.61ZM2095.34 273.22C2080.39 273.22 2068.14 260.97 2068.14 245.78C2068.14 230.835 2080.39 218.585 2095.34 218.585C2110.53 218.585 2122.53 230.835 2122.53 245.78C2122.53 260.97 2110.28 273.22 2095.34 273.22ZM2258.75 273.22C2243.56 273.22 2231.56 260.97 2231.56 245.78C2231.56 230.835 2243.56 218.585 2258.75 218.585C2273.7 218.585 2285.95 230.835 2285.95 245.78C2285.95 260.97 2273.7 273.22 2258.75 273.22ZM2095.34 218.585C2080.39 218.585 2068.14 206.58 2068.14 191.39C2068.14 176.445 2080.39 164.195 2095.34 164.195C2110.53 164.195 2122.53 176.445 2122.53 191.39C2122.53 206.58 2110.28 218.585 2095.34 218.585ZM2149.73 218.585C2134.78 218.585 2122.53 206.58 2122.53 191.39C2122.53 176.445 2134.78 164.195 2149.73 164.195C2164.92 164.195 2176.92 176.445 2176.92 191.39C2176.92 206.58 2164.92 218.585 2149.73 218.585ZM2258.75 218.585C2243.56 218.585 2231.56 206.58 2231.56 191.39C2231.56 176.445 2243.56 164.195 2258.75 164.195C2273.7 164.195 2285.95 176.445 2285.95 191.39C2285.95 206.58 2273.7 218.585 2258.75 218.585ZM2095.34 164.195C2080.39 164.195 2068.14 151.945 2068.14 137C2068.14 122.055 2080.39 109.805 2095.34 109.805C2110.53 109.805 2122.53 122.055 2122.53 137C2122.53 151.945 2110.28 164.195 2095.34 164.195ZM2204.36 164.195C2189.17 164.195 2176.92 151.945 2176.92 137C2176.92 122.055 2189.17 109.805 2204.36 109.805C2219.31 109.805 2231.56 122.055 2231.56 137C2231.56 151.945 2219.31 164.195 2204.36 164.195ZM2095.34 109.805C2080.39 109.805 2068.14 97.555 2068.14 82.61C2068.14 67.42 2080.39 55.415 2095.34 55.415C2110.53 55.415 2122.53 67.42 2122.53 82.61C2122.53 97.555 2110.28 109.805 2095.34 109.805ZM2095.34 55.415C2080.39 55.415 2068.14 43.165 2068.14 28.22C2068.14 13.03 2080.39 0.779972 2095.34 0.779972C2110.53 0.779972 2122.53 13.03 2122.53 28.22C2122.53 43.165 2110.28 55.415 2095.34 55.415Z" fill="#111010"/>
</svg>
