<svg width="2788" height="467" viewBox="0 0 2788 467" fill="none" xmlns="http://www.w3.org/2000/svg">
<path d="M396.897 269.904C396.897 283.622 394.345 296.462 389.241 308.425C384.137 320.228 377.119 330.596 368.187 339.528C359.414 348.301 349.046 355.24 337.083 360.344C325.28 365.448 312.599 368 299.041 368H0.925781V318.952H299.041C305.9 318.952 312.28 317.676 318.182 315.124C324.083 312.572 329.188 309.063 333.494 304.597C337.96 300.131 341.469 294.947 344.021 289.045C346.574 282.984 347.85 276.604 347.85 269.904C347.85 263.205 346.574 256.905 344.021 251.003C341.469 245.101 337.96 239.917 333.494 235.451C329.188 230.985 324.083 227.476 318.182 224.924C312.28 222.372 305.9 221.096 299.041 221.096H99.0215C85.623 221.096 72.9424 218.544 60.9795 213.439C49.0166 208.335 38.569 201.397 29.6367 192.624C20.8639 183.692 13.8457 173.244 8.58203 161.281C3.47786 149.318 0.925781 136.558 0.925781 123C0.925781 109.602 3.47786 96.9209 8.58203 84.958C13.8457 72.9951 20.8639 62.6273 29.6367 53.8545C38.569 44.9222 49.0166 37.904 60.9795 32.7998C72.9424 27.5361 85.623 24.9043 99.0215 24.9043H372.493V73.9521H99.0215C92.3223 73.9521 85.9421 75.2282 79.8809 77.7803C73.9792 80.3324 68.7952 83.8415 64.3291 88.3076C59.863 92.7738 56.3538 98.0374 53.8018 104.099C51.2497 110 49.9736 116.301 49.9736 123C49.9736 129.699 51.2497 136.079 53.8018 142.141C56.3538 148.042 59.863 153.226 64.3291 157.692C68.7952 162.159 73.9792 165.668 79.8809 168.22C85.9421 170.772 92.3223 172.048 99.0215 172.048H299.041C312.599 172.048 325.28 174.68 337.083 179.943C349.046 185.048 359.414 192.066 368.187 200.998C377.119 209.771 384.137 220.139 389.241 232.102C394.345 243.905 396.897 256.506 396.897 269.904ZM766.312 233.298C766.312 251.8 762.802 269.266 755.784 285.695C748.766 301.965 739.196 316.241 727.073 328.522C714.951 340.645 700.755 350.295 684.485 357.473C668.216 364.491 650.83 368 632.327 368H522.269V318.952H632.327C644.131 318.793 655.136 316.48 665.345 312.014C675.713 307.388 684.725 301.247 692.381 293.591C700.037 285.775 706.098 276.763 710.564 266.555C715.031 256.187 717.264 245.101 717.264 233.298C717.264 221.494 715.031 210.409 710.564 200.041C706.098 189.514 700.037 180.422 692.381 172.766C684.725 164.95 675.713 158.809 665.345 154.343C655.136 149.717 644.131 147.404 632.327 147.404H497.625V466.096H448.577V98.5957H632.327C650.83 98.7552 668.216 102.424 684.485 109.602C700.755 116.62 714.951 126.27 727.073 138.552C739.196 150.674 748.766 164.87 755.784 181.14C762.802 197.409 766.312 214.795 766.312 233.298ZM915.608 368H903.406C891.443 368 880.278 365.767 869.91 361.301C859.542 356.835 850.451 350.773 842.635 343.117C834.819 335.301 828.678 326.21 824.212 315.842C819.746 305.314 817.513 294.149 817.513 282.346V0.5H866.561V282.346C866.561 287.45 867.518 292.235 869.432 296.701C871.346 301.008 873.978 304.836 877.327 308.186C880.677 311.535 884.585 314.167 889.051 316.081C893.517 317.995 898.302 318.952 903.406 318.952H915.608V368ZM1019.45 37.3457C1019.45 42.4499 1018.49 47.235 1016.58 51.7012C1014.66 56.0078 1012.03 59.8359 1008.68 63.1855C1005.33 66.5352 1001.42 69.167 996.956 71.0811C992.49 72.9951 987.785 73.9521 982.84 73.9521C977.736 73.9521 972.951 72.9951 968.484 71.0811C964.018 69.167 960.11 66.5352 956.761 63.1855C953.411 59.8359 950.779 56.0078 948.865 51.7012C946.951 47.235 945.994 42.4499 945.994 37.3457C945.994 32.401 946.951 27.6956 948.865 23.2295C950.779 18.7633 953.411 14.8555 956.761 11.5059C960.11 8.15625 964.018 5.52441 968.484 3.61035C972.951 1.53678 977.736 0.5 982.84 0.5C987.785 0.5 992.49 1.53678 996.956 3.61035C1001.42 5.52441 1005.33 8.15625 1008.68 11.5059C1012.03 14.8555 1014.66 18.7633 1016.58 23.2295C1018.49 27.6956 1019.45 32.401 1019.45 37.3457ZM1007.24 368H958.196V98.5957H1007.24V368ZM1570.22 368H1521.17V147.404H1447.72V98.5957H1521.17V0.5H1570.22V98.5957H1741.77V147.404H1570.22V368ZM2090.6 184.25C2090.6 196.213 2088.37 207.378 2083.9 217.746C2079.44 228.114 2073.3 237.206 2065.48 245.021C2057.83 252.678 2048.73 258.739 2038.21 263.205C2027.84 267.671 2016.75 269.904 2004.95 269.904H1817.13C1820.64 277.082 1825.03 283.701 1830.29 289.763C1835.55 295.824 1841.46 301.008 1848 305.314C1854.54 309.621 1861.63 312.971 1869.29 315.363C1877.11 317.756 1885.24 318.952 1893.69 318.952H2054V368H1893.69C1875.19 367.84 1857.81 364.252 1841.54 357.233C1825.27 350.056 1811.07 340.406 1798.95 328.283C1786.99 316.001 1777.49 301.726 1770.48 285.456C1763.46 269.187 1759.95 251.8 1759.95 233.298C1759.95 214.795 1763.46 197.409 1770.48 181.14C1777.49 164.87 1786.99 150.674 1798.95 138.552C1811.07 126.27 1825.27 116.62 1841.54 109.602C1857.81 102.424 1875.19 98.7552 1893.69 98.5957H2004.95C2016.75 98.5957 2027.84 100.829 2038.21 105.295C2048.73 109.761 2057.83 115.902 2065.48 123.718C2073.3 131.374 2079.44 140.386 2083.9 150.754C2088.37 161.122 2090.6 172.287 2090.6 184.25ZM2004.95 221.096C2009.89 221.096 2014.6 220.139 2019.07 218.225C2023.53 216.311 2027.44 213.679 2030.79 210.329C2034.14 206.979 2036.77 203.072 2038.68 198.605C2040.6 194.139 2041.56 189.354 2041.56 184.25C2041.56 179.305 2040.6 174.6 2038.68 170.134C2036.77 165.668 2034.14 161.76 2030.79 158.41C2027.44 155.061 2023.53 152.429 2019.07 150.515C2014.6 148.441 2009.89 147.404 2004.95 147.404H1893.69C1882.85 147.404 1872.64 149.318 1863.07 153.146C1853.66 156.975 1845.2 162.238 1837.71 168.938C1830.37 175.477 1824.23 183.293 1819.29 192.385C1814.5 201.317 1811.39 210.887 1809.95 221.096H2004.95ZM2415.75 368H2255.45C2236.95 367.84 2219.56 364.252 2203.29 357.233C2187.02 350.056 2172.83 340.406 2160.71 328.283C2148.74 316.001 2139.25 301.726 2132.23 285.456C2125.22 269.187 2121.71 251.8 2121.71 233.298C2121.71 214.795 2125.22 197.409 2132.23 181.14C2139.25 164.711 2148.74 150.435 2160.71 138.312C2172.83 126.031 2187.02 116.381 2203.29 109.362C2219.56 102.185 2236.95 98.5957 2255.45 98.5957H2415.75V147.404H2255.45C2243.65 147.564 2232.56 149.956 2222.2 154.582C2211.99 159.048 2203.05 165.189 2195.4 173.005C2187.74 180.661 2181.68 189.673 2177.21 200.041C2172.91 210.409 2170.75 221.494 2170.75 233.298C2170.75 245.101 2172.91 256.187 2177.21 266.555C2181.68 276.923 2187.74 286.014 2195.4 293.83C2203.05 301.486 2211.99 307.627 2222.2 312.253C2232.56 316.719 2243.65 318.952 2255.45 318.952H2415.75V368ZM2787.08 368H2738.04V233.298C2738.04 221.494 2735.8 210.409 2731.34 200.041C2726.87 189.673 2720.81 180.661 2713.15 173.005C2705.5 165.189 2696.48 159.048 2686.12 154.582C2675.91 149.956 2664.9 147.564 2653.1 147.404H2518.4V368H2469.35V0.5H2518.4V98.5957H2653.1C2671.6 98.5957 2688.99 102.185 2705.26 109.362C2721.53 116.381 2735.72 126.031 2747.84 138.312C2759.97 150.435 2769.54 164.711 2776.56 181.14C2783.57 197.409 2787.08 214.795 2787.08 233.298V368Z" fill="#060606"/>
<path d="M1441.5 368H1377.38L1243.15 229.709L1109.41 368H1045.05L1211.33 196.452L1045.05 24.9043H1109.41L1441.5 368ZM1441.5 24.9043L1291.96 178.747L1260.14 145.969L1377.38 24.9043H1441.5Z" fill="#BA76FF"/>
</svg>
