<svg width="27" height="21" viewBox="0 0 27 21" fill="none" xmlns="http://www.w3.org/2000/svg">
<path d="M1.27492 17.3871C0.549711 17.7875 0.286439 18.7001 0.686888 19.4253C1.08734 20.1505 1.99987 20.4138 2.72508 20.0133L1.27492 17.3871ZM26.4412 6.4158C26.6709 5.61984 26.2118 4.78842 25.4158 4.55878L12.4448 0.816554C11.6489 0.586912 10.8175 1.04601 10.5878 1.84197C10.3582 2.63793 10.8173 3.46935 11.6132 3.69899L23.143 7.02541L19.8166 18.5552C19.5869 19.3511 20.046 20.1825 20.842 20.4122C21.6379 20.6418 22.4693 20.1827 22.699 19.3868L26.4412 6.4158ZM2.72508 20.0133L25.7251 7.31311L24.2749 4.68689L1.27492 17.3871L2.72508 20.0133Z" fill="black"/>
</svg>
