<svg width="20" height="20" viewBox="0 0 20 20" fill="none" xmlns="http://www.w3.org/2000/svg">
<g clip-path="url(#clip0_52_51)">
<rect width="20" height="20" rx="10" fill="black"/>
<path d="M7.60935 6.03784C7.98932 6.03784 8.34034 6.06488 8.66241 6.146C8.98448 6.20007 9.24865 6.31161 9.48388 6.4468C9.7191 6.582 9.8928 6.77465 10.0122 7.02137C10.128 7.2681 10.1895 7.56891 10.1895 7.89675C10.1895 8.27867 10.1027 8.60652 9.89642 8.85324C9.7191 9.09997 9.42959 9.31966 9.07495 9.48189C9.57434 9.61709 9.95432 9.86381 10.1859 10.1917C10.4175 10.5195 10.5659 10.9285 10.5659 11.3949C10.5659 11.7768 10.479 12.1046 10.3307 12.3784C10.1859 12.6522 9.9507 12.8989 9.68653 13.0611C9.42236 13.2267 9.10028 13.3619 8.74926 13.4431C8.39824 13.5242 8.04722 13.5783 7.6962 13.5783L3.77344 13.585V6.03784H7.60935ZM7.37413 9.09997C7.6962 9.09997 7.96037 9.01886 8.16302 8.88028C8.36567 8.74171 8.45614 8.49836 8.45614 8.19756C8.45614 8.03194 8.42719 7.86971 8.36929 7.76156C8.31139 7.6534 8.22454 7.56891 8.10512 7.48779C7.98932 7.43371 7.8699 7.37964 7.72515 7.3526C7.5804 7.32556 7.43203 7.32556 7.25832 7.32556H5.56112V9.10335C5.56112 9.09997 7.37413 9.09997 7.37413 9.09997ZM7.46098 12.3277C7.6383 12.3277 7.812 12.3007 7.96037 12.2736C8.10512 12.2466 8.25349 12.1925 8.36929 12.108C8.48509 12.0235 8.57556 11.9424 8.66241 11.8072C8.72031 11.672 8.77821 11.5064 8.77821 11.3138C8.77821 10.9318 8.66241 10.6581 8.42719 10.4654C8.19197 10.2998 7.8699 10.2187 7.48993 10.2187H5.56112V12.3243H7.46098V12.3277Z" fill="white"/>
<path d="M13.1069 12.4981C13.3207 12.7164 13.6397 12.8239 14.064 12.8239C14.3568 12.8239 14.6232 12.7433 14.837 12.6056C15.0508 12.441 15.1824 12.2798 15.235 12.1153H16.5376C16.3238 12.7668 16.0047 13.2302 15.5804 13.5291C15.1561 13.8011 14.6495 13.9623 14.0377 13.9623C13.6134 13.9623 13.2384 13.8817 12.8931 13.744C12.5477 13.6097 12.2813 13.4183 12.0412 13.1462C11.801 12.9011 11.6168 12.6022 11.5083 12.2496C11.3767 11.897 11.3208 11.5175 11.3208 11.0809C11.3208 10.6746 11.3734 10.2918 11.5083 9.93914C11.6431 9.58652 11.8273 9.28764 12.0675 9.01563C12.3076 8.77048 12.6003 8.55219 12.9194 8.41786C13.2648 8.28353 13.6101 8.19958 14.0377 8.19958C14.4917 8.19958 14.8897 8.28017 15.235 8.47159C15.5804 8.66301 15.8468 8.87794 16.0606 9.20369C16.2744 9.50257 16.4323 9.85518 16.5409 10.2347C16.5935 10.6141 16.6198 10.997 16.5935 11.4302H12.7352C12.7352 11.8735 12.8931 12.2798 13.1069 12.4981ZM14.7844 9.64361C14.5969 9.4522 14.3042 9.34473 13.9588 9.34473C13.7187 9.34473 13.5345 9.39846 13.3733 9.47906C13.2121 9.55966 13.1069 9.67048 13.0016 9.77794C12.8964 9.88541 12.8404 10.0231 12.8141 10.1574C12.7878 10.2918 12.7615 10.4026 12.7615 10.51H15.1561C15.1035 10.107 14.9686 9.83503 14.7844 9.64361ZM12.4424 6.79248H15.4225V7.52457H12.4424V6.79248Z" fill="white"/>
</g>
<defs>
<clipPath id="clip0_52_51">
<rect width="20" height="20" fill="white"/>
</clipPath>
</defs>
</svg>
