<svg width="20" height="20" viewBox="0 0 20 20" fill="none" xmlns="http://www.w3.org/2000/svg">
<g clip-path="url(#clip0_52_62)">
<path d="M18.3332 10.0001C18.3346 11.0977 18.1185 12.1847 17.6973 13.1984C17.2761 14.212 16.6583 15.1321 15.8794 15.9055C15.107 16.6766 14.1901 17.2879 13.1812 17.7045C12.1724 18.1211 11.0913 18.3348 9.99985 18.3334C5.39735 18.3334 1.66651 14.6026 1.66651 10.0001C1.6636 7.86333 2.48437 5.80765 3.95818 4.26051C4.73582 3.43992 5.67273 2.78665 6.71157 2.34066C7.7504 1.89468 8.86932 1.66537 9.99985 1.66676C11.0913 1.66534 12.1724 1.87904 13.1812 2.29564C14.1901 2.71223 15.107 3.32356 15.8794 4.09467M18.3332 10.0001C18.3346 8.90246 18.1185 7.81543 17.6973 6.80182C17.2761 5.7882 16.6583 4.8681 15.8794 4.09467M18.3332 10.0001C17.1173 10.0001 13.7632 9.54175 10.7611 10.8597C7.49984 12.2918 5.13859 14.513 4.10943 15.8947M18.3332 10.0001C18.3332 11.0263 18.1478 12.0088 17.8082 12.9168M15.8794 4.09467C15.1456 3.36352 14.2822 2.77531 13.3332 2.36009M6.87485 2.27259C8.17901 3.47634 11.0248 6.54134 12.0832 9.58342C13.1415 12.6259 13.5332 16.3668 13.7748 17.4313M1.73068 8.95842C3.30484 9.05342 7.47193 9.13884 10.1386 8.00009C12.8053 6.86134 15.0998 4.76676 15.8869 4.10217M2.29151 13.1722C3.02581 14.9496 4.35014 16.4198 6.04151 17.3351" stroke="black" stroke-width="2" stroke-linecap="round" stroke-linejoin="round"/>
</g>
<defs>
<clipPath id="clip0_52_62">
<rect width="20" height="20" fill="white"/>
</clipPath>
</defs>
</svg>
